<svg xmlns="http://www.w3.org/2000/svg" viewBox="0 0 300 300">
  <title>Facebook</title>
  <circle cx="150" cy="150" r="150" class="accent-fill"/>
  <path class="white-fill" d="M164.65,249.37V149.84c8.58,0,16.74-.06,24.9,0,2.09,0,3.07-.46,3.27-2.76.4-4.48,1.23-8.93,1.72-13.41.62-5.62,1.07-11.26,1.64-17.39H164.83c0-7.12,0-13.78,0-20.43q0-10.57,10.74-10.6h20.37V50.87a12.88,12.88,0,0,0-1.73-.23c-12,.12-24.08-.14-36.09.48-21.07,1.08-34.39,15.44-34.47,36.49,0,8.49,0,17,0,25.47,0,1.13-.1,2.26-.17,3.78H103.81v33.06h19.77v99.44Z"/>
</svg>
