<svg xmlns="http://www.w3.org/2000/svg" viewBox="0 0 415.98 415.98">
  <title>petbot-graphics-savefromkitty</title>
  <g id="Layer_2_copy" data-name="Layer 2 copy">
    <circle cx="207.99" cy="207.99" r="205.49" style="fill: none;stroke: #f1f2f2;stroke-linecap: round;stroke-linejoin: round;stroke-width: 9px"/>
    <path d="M228,274a39.52,39.52,0,0,1-12-.28c-12.16-2.06-21.17-8.74-20.12-14.91" style="fill: none;stroke: #f1f2f2;stroke-linecap: round;stroke-linejoin: round;stroke-width: 5px"/>
    <path d="M151.27,269.91V85.68a13,13,0,0,1,13-13H303.6a13,13,0,0,1,13,13V336.34a13,13,0,0,1-13,13H183.83" style="fill: none;stroke: #f1f2f2;stroke-linecap: round;stroke-linejoin: round;stroke-width: 5px"/>
    <circle cx="234.44" cy="327.18" r="11.83" style="fill: none;stroke: #f1f2f2;stroke-linecap: round;stroke-linejoin: round;stroke-width: 5px"/>
    <path d="M195.82,232.34c0-24.39-.06-72.05,0-94.33.1-30.67,4.77-38,4.77-38l14,31.33,31.67,3.33L262.6,108a281,281,0,0,1,0,37c-1.33,21,4.67,96.32,6.67,108.32" style="fill: none;stroke: #f1f2f2;stroke-linecap: round;stroke-linejoin: round;stroke-width: 5px"/>
    <path d="M218.94,161h10.89s-.67,10-5.44,10S218.94,161,218.94,161Z" style="fill: none;stroke: #f1f2f2;stroke-linecap: round;stroke-linejoin: round;stroke-width: 5px"/>
    <path d="M246.27,171s-13,14.67-20.5,0" style="fill: none;stroke: #f1f2f2;stroke-linecap: round;stroke-linejoin: round;stroke-width: 5px"/>
    <circle cx="211.43" cy="149.66" r="2.65" style="fill: none;stroke: #f1f2f2;stroke-linecap: round;stroke-linejoin: round;stroke-width: 5px"/>
    <circle cx="243.62" cy="152.32" r="2.65" style="fill: none;stroke: #f1f2f2;stroke-linecap: round;stroke-linejoin: round;stroke-width: 5px"/>
    <path d="M217.71,176.66v11.18c0,5.88,3,10.65,6.67,10.65s6.67-4.77,6.67-10.65V177.17" style="fill: none;stroke: #f1f2f2;stroke-linecap: round;stroke-linejoin: round;stroke-width: 5px"/>
    <path d="M224.38,184.34V171c-12.56,16.33-20.44-5-20.44-5" style="fill: none;stroke: #f1f2f2;stroke-linecap: round;stroke-linejoin: round;stroke-width: 5px"/>
    <path d="M171.75,259.36V98.44a7.12,7.12,0,0,1,7.09-7.09H290.18a7.12,7.12,0,0,1,7.09,7.09V294.3a7.12,7.12,0,0,1-7.09,7.09H206.82" style="fill: none;stroke: #f1f2f2;stroke-linecap: round;stroke-linejoin: round;stroke-width: 5px"/>
    <path d="M113.8,390.6c-.35-24.09-.1-49.11,1.87-61.9,4.5-29.21,33-73.62,75-71.67s48,30.5,28.5,39.48-49.84,13.41-47.42,32.19S208,365.48,208,389.48c0,6.89-1.18,15.39-2.86,24" style="fill: none;stroke: #f1f2f2;stroke-linecap: round;stroke-linejoin: round;stroke-width: 5px"/>
    <line x1="297.27" y1="351.34" x2="281.7" y2="399.86" style="fill: none;stroke: #f1f2f2;stroke-linecap: round;stroke-linejoin: round;stroke-width: 5px"/>
  </g>
</svg>
