<svg xmlns="http://www.w3.org/2000/svg" viewBox="0 0 415.98 415.98">
  <title>petbot-graphics-savefromkitty</title>
  <g id="Layer_2_copy" data-name="Layer 2 copy">
    <circle cx="207.99" cy="207.99" r="205.49" style="fill: none;stroke: #f1f2f2;stroke-linecap: round;stroke-linejoin: round;stroke-width: 9px"/>
    <path d="M253.68,306.72a21.14,21.14,0,1,0-25.3-28l-70-26.91a21.15,21.15,0,1,0-37.53,3.84,21.14,21.14,0,1,0,25.3,28l70,26.91a21.15,21.15,0,1,0,37.53-3.84Z" style="fill: none;stroke: #f1f2f2;stroke-linecap: round;stroke-linejoin: round;stroke-width: 5px"/>
    <path d="M226,316.75s2.66,14.64,16.67,6" style="fill: none;stroke: #f1f2f2;stroke-linecap: round;stroke-linejoin: round;stroke-width: 5px"/>
    <path d="M316.84,274.54A125.81,125.81,0,1,0,99,188.69a127,127,0,0,0,1,16.21l20.78-5.71a100.75,100.75,0,1,1,186.6,52.74l-12.58-13.54L289,283l38.1,7.43Z" style="fill: none;stroke: #f1f2f2;stroke-linecap: round;stroke-linejoin: round;stroke-width: 5px"/>
  </g>
</svg>
