<svg xmlns="http://www.w3.org/2000/svg" viewBox="0 0 415.98 415.98">
  <title>petbot-graphics-savefromkitty</title>
  <g id="Layer_2_copy" data-name="Layer 2 copy">
    <circle cx="207.99" cy="207.99" r="205.49" style="fill: none;stroke: #f1f2f2;stroke-linecap: round;stroke-linejoin: round;stroke-width: 9px"/>
    <path d="M231.69,98.2A21.14,21.14,0,1,0,194.47,92L122.9,114.59a21.15,21.15,0,1,0-27,26.37,21.14,21.14,0,1,0,37.22,6.15l71.57-22.54a21.15,21.15,0,1,0,27-26.37Z" style="fill: none;stroke: #f1f2f2;stroke-linecap: round;stroke-linejoin: round;stroke-width: 5px"/>
    <path d="M318.52,228.65a21.14,21.14,0,1,0-25.3-28l-70-26.91a21.15,21.15,0,1,0-37.53,3.84,21.14,21.14,0,1,0,25.3,28l70,26.91a21.15,21.15,0,1,0,37.53-3.84Z" style="fill: none;stroke: #f1f2f2;stroke-linecap: round;stroke-linejoin: round;stroke-width: 5px"/>
    <rect x="98.81" y="276.87" width="65" height="28.3" rx="13" ry="13" transform="translate(-72.28 45.08) rotate(-15.33)" style="fill: none;stroke: #f1f2f2;stroke-linecap: round;stroke-linejoin: round;stroke-width: 5px"/>
    <rect x="135.1" y="315.42" width="65" height="28.3" rx="13" ry="13" transform="translate(12.62 -6.12) rotate(2.17)" style="fill: none;stroke: #f1f2f2;stroke-linecap: round;stroke-linejoin: round;stroke-width: 5px"/>
    <path d="M110.48,287.68s5,4,5.67,7.67-2.83,10-2.83,10" style="fill: none;stroke: #f1f2f2;stroke-linecap: round;stroke-linejoin: round;stroke-width: 5px"/>
    <path d="M147.44,319.78s4.63,4.42,5,8.14-3.7,9.71-3.7,9.71" style="fill: none;stroke: #f1f2f2;stroke-linecap: round;stroke-linejoin: round;stroke-width: 5px"/>
    <line x1="147.44" y1="128.01" x2="178.81" y2="114.68" style="fill: none;stroke: #f1f2f2;stroke-linecap: round;stroke-linejoin: round;stroke-width: 5px"/>
    <path d="M290.81,238.68s2.66,14.64,16.67,6" style="fill: none;stroke: #f1f2f2;stroke-linecap: round;stroke-linejoin: round;stroke-width: 5px"/>
  </g>
</svg>
