<svg xmlns="http://www.w3.org/2000/svg" viewBox="0 0 415.98 415.98">
  <title>petbot-graphics-savefromkitty</title>
  <g id="Layer_2_copy" data-name="Layer 2 copy">
    <circle cx="207.99" cy="207.99" r="205.49" style="fill: none;stroke: #f1f2f2;stroke-linecap: round;stroke-linejoin: round;stroke-width: 9px"/>
    <rect x="225.7" y="89" width="99.95" height="99.95" style="fill: none;stroke: #f1f2f2;stroke-miterlimit: 10;stroke-width: 5px"/>
    <circle cx="275.68" cy="118.06" r="7.63" style="fill: none;stroke: #f1f2f2;stroke-miterlimit: 10;stroke-width: 5px"/>
    <path d="M288.37,152.19s-1.44,20-12.69,20c-10.1,0-12.69-20-12.69-20Z" style="fill: none;stroke: #f1f2f2;stroke-miterlimit: 10;stroke-width: 5px"/>
    <path d="M239.95,80.88s1-18.06,9.1-18.06c7.24,0,9.1,18.06,9.1,18.06" style="fill: none;stroke: #f1f2f2;stroke-linecap: round;stroke-miterlimit: 10;stroke-width: 5px"/>
    <path d="M291.32,80.88s1-18.06,9.1-18.06c7.24,0,9.1,18.06,9.1,18.06" style="fill: none;stroke: #f1f2f2;stroke-linecap: round;stroke-miterlimit: 10;stroke-width: 5px"/>
    <path d="M241,75H237A11.28,11.28,0,0,0,225.7,86.28v3.46" style="fill: none;stroke: #f1f2f2;stroke-miterlimit: 10;stroke-width: 5px"/>
    <line x1="292.41" y1="75.03" x2="256.79" y2="75.03" style="fill: none;stroke: #f1f2f2;stroke-miterlimit: 10;stroke-width: 5px"/>
    <path d="M325.65,89.74V86.28A11.28,11.28,0,0,0,314.4,75h-6.24" style="fill: none;stroke: #f1f2f2;stroke-miterlimit: 10;stroke-width: 5px"/>
    <circle cx="150.73" cy="275.11" r="3.92" style="fill: none;stroke: #f1f2f2;stroke-linecap: round;stroke-miterlimit: 10;stroke-width: 5px"/>
    <path d="M197.35,247.31l-11.82,9.55s20.12,9.55,27.35,0" style="fill: none;stroke: #f1f2f2;stroke-linecap: round;stroke-miterlimit: 10;stroke-width: 5px"/>
    <circle cx="196.77" cy="98.11" r="3.82" transform="translate(-22.82 109.21) rotate(-29.4)" style="fill: none;stroke: #f1f2f2;stroke-linecap: round;stroke-miterlimit: 10;stroke-width: 5px"/>
    <rect x="178.27" y="54.18" width="7.46" height="35.42" rx="3.73" ry="3.73" transform="translate(-11.85 98.59) rotate(-29.4)" style="fill: none;stroke: #f1f2f2;stroke-linecap: round;stroke-miterlimit: 10;stroke-width: 5px"/>
    <path d="M46.91,335.59l31.26-29.38S66.48,261.64,84,243.33l21.69,37.41S185,219.45,212.87,256.86l-49.49,60.49,63-30.24S225,311,164.83,360.33l-10.18,46.16" style="fill: none;stroke: #f1f2f2;stroke-linecap: round;stroke-miterlimit: 10;stroke-width: 5px"/>
  </g>
</svg>
