<svg id="Layer_1" data-name="Layer 1" xmlns="http://www.w3.org/2000/svg" viewBox="0 0 185 156">
  <defs>
    <style>
      .specs-icon-3-cls-5 {
        fill: none;
        stroke: gray;
        stroke-miterlimit: 10;
      }
    </style>
  </defs>
  <title>icons_specs</title>
  <g>
    <rect class="icon-grey-1" width="184.67" height="156"/>
    <rect class="icon-grey-3" y="123" width="185" height="33"/>
    <ellipse class="icon-grey-1" cx="75.5" cy="138.33" rx="28.17" ry="13.67"/>
    <path class="icon-white" d="M64.25,129.54c-1.83,0-6-6.12-6-6.12s34.08-.75,44.5-1.25c4.58.83,28.4.5,28.4.5s-5.15-30.25-12.48-43C96.22,40.64,51,76,51,76c-23.33,40.85-2.26,64.81,10.29,70.61"/>
    <ellipse class="icon-grey-2" cx="86.83" cy="41.5" rx="27.17" ry="26.17"/>
    <ellipse class="icon-grey-3" cx="86.67" cy="49.68" rx="20.67" ry="26.34"/>
    <path class="icon-grey-2" d="M100,23.33,86.67,20.67,68.67,25,62.33,50.79,67.65,60S67.39,40.78,78.33,41.6c0,0-.33,9.74,6.33,11.74s22.46,0,22.46,0l3.2-9.33Z"/>
    <circle class="icon-grey-2" cx="88.25" cy="18.42" r="9.92"/>
    <polyline class="specs-icon-3-cls-5" points="82.83 66.83 86.83 69.5 90.83 66.83"/>
    <polygon class="icon-grey-2" points="74.25 115.17 71.75 93.67 89.75 92.42 90.83 117.17 74.25 115.17"/>
    <path class="icon-grey-3" d="M61.29,146.63A13.87,13.87,0,0,0,66,148c10.33.67,18-20,24.83-22.67s3.83-15.81,3.83-15.81S82.67,113,78.33,113s-7.33-5-9-3,2.33,9.33,2.33,9.33,2.58,5.08-.67,6.83c-1.91,1-4.16,3.43-6.75,3.37"/>
    <path class="icon-white" d="M135,44.88s-10-8.62-8.82-.92,7.55,13,7.55,13,16.77-11.22,12-14.37S135,44.88,135,44.88Z"/>
    <path class="icon-white" d="M138.22,68.27s4.29-3.69,3.77-.39a10.28,10.28,0,0,1-3.23,5.58s-7.18-4.8-5.12-6.15S138.22,68.27,138.22,68.27Z"/>
  </g>
</svg>
