<svg id="Layer_1" data-name="Layer 1" xmlns="http://www.w3.org/2000/svg" viewBox="0 0 185 156.33">
  <defs>
    <style>
      .specs-icon-4-cls-1 {
        fill: #bcbbbb;
      }

      .specs-icon-4-cls-2 {
        fill: gray;
      }

      .specs-icon-4-cls-3 {
        fill: #cecccc;
      }

      .specs-icon-4-cls-4 {
        fill: #fff;
      }

      .specs-icon-4-cls-5 {
        fill: #6b6262;
      }

      .specs-icon-4-cls-6 {
        fill: none;
        stroke: #fff;
        stroke-miterlimit: 10;
      }
    </style>
  </defs>
  <title>icons_specs</title>
  <g>
    <rect class="specs-icon-4-cls-1" y="0.33" width="184.67" height="156"/>
    <path class="specs-icon-4-cls-2" d="M112,92.66a2.6,2.6,0,0,0,.31-2.41,2.5,2.5,0,0,0-3.31-1.4,2.44,2.44,0,0,0-1.47,3.46l-5,1.87a2.44,2.44,0,0,0-3.39-1.62,2.54,2.54,0,0,0,.28,4.88,2.57,2.57,0,0,0-.31,2.4,2.67,2.67,0,0,0,3.38,1.59,2.54,2.54,0,0,0,1.54-3.27l5-1.87a2.53,2.53,0,0,0,3.32,1.43,2.64,2.64,0,0,0,1.5-3.39A2.68,2.68,0,0,0,112,92.66Z"/>
    <polygon class="specs-icon-4-cls-3" points="81.58 72.2 185 83.86 185 0 0 0.33 0 65 81.58 72.2"/>
    <path class="specs-icon-4-cls-2" d="M42.1,83.86,16,75.36V24.92S14.19,16,44.19,17"/>
    <g>
      <path class="specs-icon-4-cls-2" d="M80.36,20.46C80.21,17,78.81,14.34,76.83,14c-1.72-.26-2.94,1.68-3.39,4.76L50.78,15.94c-.45-3.52-1.89-6.09-3.61-6.35-2.06-.31-3.65,2.73-3.68,7A7.93,7.93,0,0,0,41,22.7v7.37c0,4.73,3.08,8.71,7,8.84l28.69.89c3.95.12,6.28-3,6.28-7V26.66A7.73,7.73,0,0,0,80.36,20.46Z"/>
      <polygon class="specs-icon-4-cls-4" points="41 84.26 83 78 83 28 41 24.3 41 84.26"/>
      <path class="specs-icon-4-cls-2" d="M58.86,61.54c.05,3.34,2.78,7.64,6.14,7.31s6.08-4.92,6.14-8.09Z"/>
      <path class="specs-icon-4-cls-1" d="M69.76,43.2a4.63,4.63,0,1,1-9.23-.14,4.67,4.67,0,0,1,4.61-4.93A5,5,0,0,1,69.76,43.2Z"/>
      <path class="specs-icon-4-cls-2" d="M67.17,43.17a1.41,1.41,0,0,1-1.37,1.46,1.45,1.45,0,0,1-1.37-1.5,1.39,1.39,0,0,1,1.37-1.46A1.46,1.46,0,0,1,67.17,43.17Z"/>
    </g>
    <path class="specs-icon-4-cls-2" d="M127.25,74.71s-6-4.29-8.95,10.17c-.61,3,4.13,4,6.34,0S131.7,78,131.7,78,131.38,76.34,127.25,74.71Z"/>
    <polygon class="specs-icon-4-cls-2" points="136.09 78.8 138.2 58.77 145.63 67.32 164.84 67.06 170.62 59.25 174.56 83.01 136.09 78.8"/>
    <path class="specs-icon-4-cls-4" d="M143,78h8.78s-1.54-3.29-4.39-3.29S143,78,143,78Z"/>
    <path class="specs-icon-4-cls-4" d="M160,78h8.78s-1.54-3.29-4.39-3.29S160,78,160,78Z"/>
    <path class="specs-icon-4-cls-2" d="M145,78h1V75S145.08,75.25,145,78Z"/>
    <path class="specs-icon-4-cls-2" d="M163,78h1V75S163.08,75.25,163,78Z"/>
    <g>
      <line class="specs-icon-4-cls-2" x1="117.69" y1="88.44" x2="118.25" y2="86.5"/>
      <path class="specs-icon-4-cls-5" d="M117.69,88.44a1.33,1.33,0,0,1-.2-1.11,1.32,1.32,0,0,1,.76-.83,1.28,1.28,0,0,1-.56,1.94Z"/>
    </g>
    <g>
      <line class="specs-icon-4-cls-2" x1="119.14" y1="89.61" x2="119.66" y2="87.31"/>
      <path class="specs-icon-4-cls-5" d="M119.14,89.61a1.47,1.47,0,0,1-.2-.42,1.64,1.64,0,0,1,.36-1.58,1.46,1.46,0,0,1,.36-.29,1.46,1.46,0,0,1,.2.42,1.64,1.64,0,0,1-.36,1.58A1.47,1.47,0,0,1,119.14,89.61Z"/>
    </g>
    <g>
      <line class="specs-icon-4-cls-2" x1="121.67" y1="89.46" x2="121.6" y2="87.36"/>
      <path class="specs-icon-4-cls-5" d="M121.67,89.46a1.35,1.35,0,0,1-.3-.32,1.33,1.33,0,0,1-.05-1.44,1.35,1.35,0,0,1,.28-.34,1.35,1.35,0,0,1,.3.32,1.33,1.33,0,0,1,0,1.44A1.35,1.35,0,0,1,121.67,89.46Z"/>
    </g>
    <line class="specs-icon-4-cls-6" x1="88.5" y1="33.25" x2="97.52" y2="27.48"/>
    <line class="specs-icon-4-cls-6" x1="88.5" y1="41.93" x2="97.52" y2="42.04"/>
    <line class="specs-icon-4-cls-6" x1="88.5" y1="50.4" x2="97.52" y2="55.5"/>
  </g>
</svg>
