<svg xmlns="http://www.w3.org/2000/svg" viewBox="0 0 415.98 415.98">
  <title>petbot-graphics-savefromkitty</title>
  <g id="Layer_2_copy" data-name="Layer 2 copy">
    <rect x="103.5" y="96.42" width="99.95" height="99.95" style="fill: none;stroke: #f1f2f2;stroke-miterlimit: 10;stroke-width: 5px"/>
    <circle cx="153.47" cy="125.47" r="7.63" style="fill: none;stroke: #f1f2f2;stroke-miterlimit: 10;stroke-width: 5px"/>
    <path d="M166.16,159.6s-1.44,20-12.69,20c-10.1,0-12.69-20-12.69-20Z" style="fill: none;stroke: #f1f2f2;stroke-miterlimit: 10;stroke-width: 5px"/>
    <path d="M117.74,88.29s1-18.06,9.1-18.06c7.24,0,9.1,18.06,9.1,18.06" style="fill: none;stroke: #f1f2f2;stroke-linecap: round;stroke-miterlimit: 10;stroke-width: 5px"/>
    <path d="M169.11,88.29s1-18.06,9.1-18.06c7.24,0,9.1,18.06,9.1,18.06" style="fill: none;stroke: #f1f2f2;stroke-linecap: round;stroke-miterlimit: 10;stroke-width: 5px"/>
    <path d="M244.71,285.64l1.11-25.87c0-.1,0-.2,0-.31l.86-20a3.59,3.59,0,0,0-3.42-3.73l-1.13,0a3.59,3.59,0,0,0-3.73,3.42l-.32,7.48-.57,0,.32-7.48a3.59,3.59,0,0,0-3.42-3.73l-1.13,0a3.59,3.59,0,0,0-3.73,3.42l-.32,7.48-.54,0,.32-7.48a3.59,3.59,0,0,0-3.42-3.73l-1.13,0a3.59,3.59,0,0,0-3.73,3.42l-.32,7.48-.54,12.53-3.65,84.8s4.36,35.26,8.81,61.09" style="fill: none;stroke: #f1f2f2;stroke-miterlimit: 10;stroke-width: 5px"/>
    <circle cx="207.99" cy="207.99" r="205.49" style="fill: none;stroke: #f1f2f2;stroke-linecap: round;stroke-linejoin: round;stroke-width: 9px"/>
    <path d="M118.84,82.44h-4.09A11.28,11.28,0,0,0,103.5,93.69v3.46" style="fill: none;stroke: #f1f2f2;stroke-miterlimit: 10;stroke-width: 5px"/>
    <line x1="170.21" y1="82.44" x2="134.58" y2="82.44" style="fill: none;stroke: #f1f2f2;stroke-miterlimit: 10;stroke-width: 5px"/>
    <path d="M203.45,97.15V93.69A11.28,11.28,0,0,0,192.2,82.44H186" style="fill: none;stroke: #f1f2f2;stroke-miterlimit: 10;stroke-width: 5px"/>
    <path d="M297.81,268.38l-3.57-28.11-1.58-12.44-.94-7.42a3.59,3.59,0,0,1,3.1-4l1.12-.14a3.59,3.59,0,0,1,4,3.1l.94,7.42.54-.07-.94-7.42a3.59,3.59,0,0,1,3.1-4l1.12-.14a3.59,3.59,0,0,1,4,3.1l.94,7.42.57-.07-.94-7.42a3.59,3.59,0,0,1,3.1-4l1.12-.14a3.59,3.59,0,0,1,4,3.1L320,237c0,.11,0,.21,0,.31l13.47,106s-.12,13.53-.8,28.07" style="fill: none;stroke: #f1f2f2;stroke-miterlimit: 10;stroke-width: 5px"/>
    <g>
      <path d="M256.5,324.15c-5.34-3.81-3.81-15.57-3.81-15.57,0-11.76-19.07-28.67-16.78-21,1.56,5.21-5.41,18.59-10,26.56a12.74,12.74,0,0,0,0,12.75l10,17.14L223.53,412.9" style="fill: none;stroke: #f1f2f2;stroke-linecap: round;stroke-linejoin: round;stroke-width: 5px"/>
      <path d="M299.15,324.15c5.34-3.81,3.81-15.57,3.81-15.57,0-11.76,19.07-28.67,16.78-21-1.41,4.69,4.11,16,8.57,24a18.13,18.13,0,0,1-.15,17.91L319.74,344l5.84,32.54" style="fill: none;stroke: #f1f2f2;stroke-linecap: round;stroke-linejoin: round;stroke-width: 5px"/>
      <path d="M262.6,265.42h26.15S283.52,257,275.68,257,262.6,265.42,262.6,265.42Z" style="fill: none;stroke: #f1f2f2;stroke-linecap: round;stroke-linejoin: round;stroke-width: 5px"/>
      <circle cx="256.5" cy="291.02" r="2.69" style="fill: none;stroke: #f1f2f2;stroke-linecap: round;stroke-linejoin: round;stroke-width: 5px"/>
      <circle cx="293.74" cy="291.02" r="2.69" style="fill: none;stroke: #f1f2f2;stroke-linecap: round;stroke-linejoin: round;stroke-width: 5px"/>
      <path d="M243.65,291s2.18-25.6,21.25-25.6" style="fill: none;stroke: #f1f2f2;stroke-linecap: round;stroke-linejoin: round;stroke-width: 5px"/>
      <path d="M284,265.42s25.72-1.2,25.72,28.29" style="fill: none;stroke: #f1f2f2;stroke-linecap: round;stroke-linejoin: round;stroke-width: 5px"/>
    </g>
  </g>
</svg>
