<svg xmlns="http://www.w3.org/2000/svg" viewBox="0 0 73.43 64.09">
  <defs>
    <style>
      .cls-1 {
        isolation: isolate;
      }

      .cls-2 {
        fill: #4b5da9;
        mix-blend-mode: multiply;
      }
    </style>
  </defs>
  <title>petbot-webapp</title>
  <g class="cls-1">
    <g id="Layer_1" data-name="Layer 1">
      <g>
        <path class="cls-2" d="M19.15,35.07v0l0,0a.44.44,0,0,1-.22.24l0,0,0,0a1,1,0,0,1-.48.52l0,0h0a1.24,1.24,0,0,1-.55.64l0,0c-1.54,1.68-3.11,3.33-4.61,5.05a14.67,14.67,0,0,0-2.79,4.73,21.66,21.66,0,0,0-1,3.28,14,14,0,0,0-.06,4.22,4.84,4.84,0,0,0,.25,1.24,25.4,25.4,0,0,0,1.07,2.45,9.64,9.64,0,0,0,3.61,3.87A21.56,21.56,0,0,0,17.48,63a13,13,0,0,0,3.5.8,13.56,13.56,0,0,0,5.28,0l.4,0c.25-.21.59-.13.89-.25a5.32,5.32,0,0,0,1.56-.41,11.49,11.49,0,0,1,2.57-.68,20.86,20.86,0,0,1,3.3-.35c.92,0,1.84,0,2.77,0a11.16,11.16,0,0,1,1.7.05,26.92,26.92,0,0,1,4,.72,9.83,9.83,0,0,0,1.27.38l1.73.32a25.72,25.72,0,0,0,4.14.53,44.9,44.9,0,0,0,4.8-.38,7.79,7.79,0,0,0,2.3-.63,14.06,14.06,0,0,0,2.51-1.36,11,11,0,0,0,3-2.82,9.57,9.57,0,0,0,1.52-4.82,16.21,16.21,0,0,0-.26-4.94,14.67,14.67,0,0,0-.53-1.88A19.59,19.59,0,0,0,61.41,43c-.79-1.06-1.7-2-2.54-3-1.57-1.88-3.07-3.81-4.61-5.71s-3.33-4.08-5-6.12a22.4,22.4,0,0,0-5.07-4.43,9.85,9.85,0,0,0-2.48-1.11,13.59,13.59,0,0,0-3.93-.79,18.29,18.29,0,0,0-5,.59,8.57,8.57,0,0,0-3.31,1.72,47.48,47.48,0,0,0-4.29,4.4c-1.41,1.49-2.84,3-4.24,4.55l0,0A10.63,10.63,0,0,1,19.15,35.07Z"/>
        <path class="cls-2" d="M18.61,16.39A11,11,0,0,0,23.27,22a7.26,7.26,0,0,0,1.85.8,15.13,15.13,0,0,0,2.7.44c.38,0,.66-.23,1-.25a6.39,6.39,0,0,0,3.32-1.38,10.2,10.2,0,0,0,2.9-3.35A12.34,12.34,0,0,0,36.29,15a12.51,12.51,0,0,0,.31-4,10.54,10.54,0,0,0-.33-2.16A19,19,0,0,0,35,5.42a11.36,11.36,0,0,0-3.38-3.86A5.67,5.67,0,0,0,29.84.62,8.14,8.14,0,0,0,25.22.21,10.61,10.61,0,0,0,22.1,1.59a9.66,9.66,0,0,0-2.9,3.28A11.12,11.12,0,0,0,18,7.72a9.78,9.78,0,0,0-.32,3.4A12.19,12.19,0,0,0,18.61,16.39Z"/>
        <path class="cls-2" d="M54,29.4a1.86,1.86,0,0,0,.17,1,2.74,2.74,0,0,1,.19.67,6.35,6.35,0,0,0,2,3.51,7.09,7.09,0,0,0,4.89,1.83,10.61,10.61,0,0,0,5.55-1.61,13.8,13.8,0,0,0,3.9-3.55,13.48,13.48,0,0,0,2.09-4,25,25,0,0,0,.48-2.48,7.19,7.19,0,0,0-.45-3.65,6.21,6.21,0,0,0-1.29-2.22,6.57,6.57,0,0,0-2.07-1.63,8,8,0,0,0-4.08-.83,10.33,10.33,0,0,0-1.66.3,8.75,8.75,0,0,0-2.62,1A12.41,12.41,0,0,0,58,20a14.16,14.16,0,0,0-3.22,4.89A14.66,14.66,0,0,0,54,29.4Z"/>
        <path class="cls-2" d="M37.69,15.19a17.31,17.31,0,0,0,1.37,3.35,9.39,9.39,0,0,0,5.06,4.29c.48.17,1,.1,1.44.3a2.28,2.28,0,0,0,1.46.09,8.12,8.12,0,0,1,1-.17,5.35,5.35,0,0,0,1.68-.49,9,9,0,0,0,2.58-1.65,12.63,12.63,0,0,0,3.55-6,12.22,12.22,0,0,0,.36-3.77,11.31,11.31,0,0,0-.66-4.39,11.59,11.59,0,0,0-1.34-2.69A9.16,9.16,0,0,0,50.87,1,7.78,7.78,0,0,0,47,0,8.64,8.64,0,0,0,42.3,1.6a10.4,10.4,0,0,0-2.94,3.17,17.64,17.64,0,0,0-1.27,2.77A17.62,17.62,0,0,0,37.38,11a14.24,14.24,0,0,0,.28,4.08A.68.68,0,0,0,37.69,15.19Z"/>
        <path class="cls-2" d="M2,30a14.87,14.87,0,0,0,4,4.15,14,14,0,0,0,6.08,2.41,9.38,9.38,0,0,0,4.25-.46,12.91,12.91,0,0,0,2.21-1h0a.27.27,0,0,1,.28-.26h0a.49.49,0,0,1,.17-.29,7.13,7.13,0,0,0,1.43-1.59,2.23,2.23,0,0,1,.24-.24,9.32,9.32,0,0,0,1.13-4.14,11.19,11.19,0,0,0-.48-3.21,10.42,10.42,0,0,0-1.06-2.57,15.11,15.11,0,0,0-3.36-4,13,13,0,0,0-6.4-3.08,10,10,0,0,0-5.76.55A8.41,8.41,0,0,0,2.27,18,8.23,8.23,0,0,0,0,23a9.61,9.61,0,0,0,.62,4.37A14.23,14.23,0,0,0,2,30Z"/>
      </g>
    </g>
  </g>
</svg>
