<svg id="Layer_1" data-name="Layer 1" xmlns="http://www.w3.org/2000/svg" viewBox="0 0 862.48 217.08">
  <title>petbot-logo</title>
  <g>
    <path d="M279.87,89a43.17,43.17,0,0,1-6.93.18c-3.84,0-7.67,0-11.51,0-2.44,0-2.82.37-2.83,2.77q0,26.26,0,52.52a21.61,21.61,0,0,0,2.5,11,19.6,19.6,0,0,0,10.14,8.42c1.77.72,3.64,1,5.43,1.6a2.13,2.13,0,0,1,1.7,2.41c0,3,0,6.07,0,9.11,0,1.28,0,2.56-.08,3.83-.06,1.08-.6,1.42-1.75,1.32a41.15,41.15,0,0,1-19.11-6.6,34.3,34.3,0,0,1-8.43-7.84c-2-2.54-3.08-5.5-4.82-8.13a10.14,10.14,0,0,1-.82-3,30.23,30.23,0,0,1-1.38-7c-.21-6.79-.14-13.59-.14-20.38q0-39.45,0-78.89a14.26,14.26,0,0,1,.18-3.58,1.85,1.85,0,0,1,1.53-.54c4.32,0,8.64,0,13,0,1.84,0,2.28,1,2.27,2.6,0,6.88,0,13.76,0,20.63,0,2.79.3,3.14,3,3,5.25-.18,10.5-.07,15.74-.06,1.88,0,2.68.45,2.58,2.4C279.93,79.58,280.47,84.29,279.87,89Z" style="fill: #fff"/>
    <path d="M590.91,89a9.05,9.05,0,0,1-2.86.18c-5.2,0-10.4,0-15.59,0-2.44,0-2.82.37-2.82,2.78,0,17.51,0,35,0,52.53a22.78,22.78,0,0,0,1.1,8,18,18,0,0,0,6.37,8.61,19.77,19.77,0,0,0,8.84,3.78c.75.1,1.28.66,2,.76a1.27,1.27,0,0,1,1.21,1.47q0,6.84,0,13.67c0,1.16-.52,1.47-1.66,1.37a43.45,43.45,0,0,1-16.65-5.2,34.68,34.68,0,0,1-12.29-11.17A36.33,36.33,0,0,1,554,155.72c-1.23-4.05-1.2-8.17-1.2-12.28q-.07-46.9,0-93.79a8,8,0,0,1,.24-2.85c.64-.65,1.48-.51,2.26-.52,3.91,0,7.83,0,11.74,0,2.43,0,2.75.33,2.75,2.8,0,6.87,0,13.74,0,20.61,0,2.61.08,2.65,2.78,2.71,5.3.11,10.61-.06,15.91.11,2.58.08,2.7.1,2.64,2.63C591.05,79.75,591.51,84.37,590.91,89Z" style="fill: #fff"/>
    <path d="M685,215.79a25.41,25.41,0,0,1,8.47.55,4.29,4.29,0,0,0,2.58,0,18.57,18.57,0,0,1,6.82-.5,9.3,9.3,0,0,1-4.59,1.2C693.77,217,689.27,217.48,685,215.79Z" style="fill: #fff"/>
    <path d="M677.83,117.81a1.66,1.66,0,0,1,.58-1,24.13,24.13,0,0,0,4.83-5.39,7.52,7.52,0,0,1,.84-.82c.14.56.28,1.13.9,1.39a35.92,35.92,0,0,1-6.22,6.72A1.88,1.88,0,0,0,677.83,117.81Z" style="fill: #fff"/>
    <path d="M676,121.68a4.2,4.2,0,0,1-2,2.31A2.57,2.57,0,0,1,676,121.68Z" style="fill: #fff"/>
    <path d="M704.2,215.69c.74-1.15,1.86-1,3-.84A3.24,3.24,0,0,1,704.2,215.69Z" style="fill: #fff"/>
    <path d="M677.81,119.71a3.32,3.32,0,0,1-1.86,2A2.39,2.39,0,0,1,677.81,119.71Z" style="fill: #fff"/>
    <path d="M676.74,118.67a.91.91,0,0,1,1.08-.86A1.71,1.71,0,0,1,676.74,118.67Z" style="fill: #fff"/>
    <path d="M678.74,118.72c-.23.4-.38.89-.93,1C677.9,119.17,678.12,118.76,678.74,118.72Z" style="fill: #fff"/>
    <path d="M396,115.57a44.37,44.37,0,0,0-9-9.68c-1.77-1.38-1.75-1.43-.32-3.17a37.38,37.38,0,0,0,6.15-10.05,42.41,42.41,0,0,0,3.11-12.41c.53-7.64.29-15.22-2.6-22.57a36.08,36.08,0,0,0-7.46-11.94A40.23,40.23,0,0,0,369,35.52a46.19,46.19,0,0,0-14.89-2.72c-17,.05-33.9,0-50.85,0-3.52,0-3.34-.5-3.34,3.36q0,35.38,0,70.77t0,70.53c0,3.65-.49,3.43,3.53,3.43q26.51,0,53,0c4.13,0,8.24.1,12.37-.91a75.48,75.48,0,0,0,9.95-3,35.73,35.73,0,0,0,16.72-13A40.2,40.2,0,0,0,401,151.82c1.14-4,1.22-8.2,1.4-12.34C402.74,130.84,401,122.75,396,115.57Zm-78-22.4q0-18.84,0-37.68c0-.64,0-1.28,0-1.92.1-1.88.56-2.34,2.48-2.48.48,0,1,0,1.44,0h30a7.87,7.87,0,0,1,4.4.9c7.63.73,13.87,3.91,18,10.56a18.28,18.28,0,0,1,2.87,9.17c0,1.59.07,3.19,0,4.78a20.67,20.67,0,0,1-5.45,13.8,17,17,0,0,1-6.81,4.56c-.81.29-1.47,1-2.41.94-1.94,1.81-4.51,1.36-6.81,1.86a15.76,15.76,0,0,1-3.35.14H321.88c-.48,0-1,0-1.44,0-2-.11-2.35-.45-2.45-2.43C317.95,94.61,318,93.89,318,93.17Zm65.45,50.76a24.09,24.09,0,0,1-2.18,6.7,20.89,20.89,0,0,1-6,6.9c-2.81,2-6,3.1-9.24,4.17a7.81,7.81,0,0,1-2.38.21c-7.35,0-14.71.1-22.06.11s-14.87,0-22.3-.08a.9.9,0,0,1-1.17-.87,18.61,18.61,0,0,1-.11-2.15q0-19.77,0-39.54c0-.16,0-.32,0-.48.06-2.78.24-3,3-3q19.89,0,39.78,0c1.41,0,2.91-.22,4.12.85,3,.25,5.59,1.62,8.14,3a18.44,18.44,0,0,1,8.53,8.88A24.17,24.17,0,0,1,383.41,143.93Z" style="fill: #fff"/>
    <path d="M226.77,113.75A48.58,48.58,0,0,0,223,100.81a58.53,58.53,0,0,0-8.86-14.17,52.39,52.39,0,0,0-9.79-8.82,55.44,55.44,0,0,0-10.95-6.06,53.34,53.34,0,0,0-9.89-3.19c-3.51-.67-7-1.65-10.57-1.63-4.7,0-9.36-.1-14.07.72a61.89,61.89,0,0,0-12.53,3.53,56.18,56.18,0,0,0-14.22,8.39,58.69,58.69,0,0,0-17.16,21.87,52.9,52.9,0,0,0-3.2,8.94,43.31,43.31,0,0,0-1.56,8.18c-.29,5.88-.51,11.76.64,17.66a58.65,58.65,0,0,0,3.86,12.45,56,56,0,0,0,10.58,16.07,65.3,65.3,0,0,0,10.54,9.13c8.14,5.59,17.32,8.56,27,9.87a48.58,48.58,0,0,0,14.36-.21c5.64-.92,11.3-1.61,16.79-3.55a62.39,62.39,0,0,0,11.75-5.38,38.59,38.59,0,0,0,12.12-11.72,30.1,30.1,0,0,0,4.07-9.83c.43-1.86.17-2.18-1.64-2.18-5.2,0-10.4,0-15.59,0a2.31,2.31,0,0,0-2.51,1.71,15.26,15.26,0,0,1-5.7,7.39c-5.59,4.25-12.18,6-19,6.73a85.63,85.63,0,0,1-14.14.11,7.51,7.51,0,0,1-1.9-.23c-4.11-1.33-8.26-2.45-12.17-4.48a44.93,44.93,0,0,1-13.87-11.29,34.23,34.23,0,0,1-6.94-14.31c-.5-2.12-.17-2.6,2-2.67.64,0,1.28,0,1.92,0h91.17c.72,0,1.44,0,2.16,0,1,0,1.48-.34,1.73-1.45C228.74,126.09,227.68,119.87,226.77,113.75Zm-98.64,3a16.33,16.33,0,0,1,2.12-6.87,49.52,49.52,0,0,1,10.32-14.23A52.35,52.35,0,0,1,151,88c3.45-1.95,7.33-2.55,10.91-4a4.24,4.24,0,0,1,1.42-.15c1.44-.06,2.88,0,4.31-.16,5.8-.52,11.28.9,16.48,3.17a42.57,42.57,0,0,1,14.15,10A55.55,55.55,0,0,1,207.46,110a18.42,18.42,0,0,1,2.27,6.73Z" style="fill: #fff"/>
    <path d="M95.9,73.64a5,5,0,0,0-.2-1.42c-.79-2.25-.67-4.7-1.55-6.95s-1.35-4.77-2.46-6.92a50.15,50.15,0,0,0-4.59-7.48,40.63,40.63,0,0,0-10.77-9.75,49.26,49.26,0,0,0-12.47-5.7c-4.28-1.26-8.56-2.5-13-2.52-15.92-.1-31.84-.08-47.75-.09C-.24,32.81,0,32.43,0,35.93q0,35.4,0,70.79,0,2,0,4.08,0,33.72,0,67.43c0,2.64,0,2.66,2.6,2.67q6.12,0,12.24,0c3.59,0,3.66.38,3.66-3.69q0-21.6,0-43.2c0-1,0-2.08.06-3.12.14-1.65.43-1.9,2.06-2,.64,0,1.28,0,1.92,0,9.52,0,19-.13,28.56,0a35.06,35.06,0,0,0,9-1.3,54.28,54.28,0,0,0,15.73-6.42,37.26,37.26,0,0,0,5.06-3.5,41,41,0,0,0,7.8-8.74,38.15,38.15,0,0,0,3.6-6.92c.82-2.23,1.47-4.5,2.16-6.76A38.83,38.83,0,0,0,95.83,88,93.69,93.69,0,0,0,95.9,73.64ZM77,86.6a25.77,25.77,0,0,1-16.95,21.19,7.62,7.62,0,0,1-4.7,2.16,57.87,57.87,0,0,1-10.46,1.1c-7.6-.14-15.2,0-22.8,0-.72,0-1.44,0-2.16-.06a2,2,0,0,1-2-2c-.06-.72-.06-1.44-.06-2.16q0-25.8,0-51.59c0-3.93.49-4.47,4.38-4.49q11.64-.05,23.28,0A28.66,28.66,0,0,1,53.83,52a2.4,2.4,0,0,0,.45.05,3.31,3.31,0,0,1,2.93.86,30.13,30.13,0,0,1,13.33,8.24,26.71,26.71,0,0,1,5.56,10A34.79,34.79,0,0,1,77,86.6Z" style="fill: #fff"/>
    <path d="M832.15,166.32a49.63,49.63,0,0,0-1.79-6.35,66.28,66.28,0,0,0-8.57-14.32c-2.67-3.6-5.75-6.87-8.61-10.31-5.3-6.36-10.39-12.89-15.6-19.32-5.61-6.92-11.27-13.79-16.89-20.7a75.78,75.78,0,0,0-17.14-15,33.28,33.28,0,0,0-8.38-3.76,46,46,0,0,0-13.29-2.66,61.87,61.87,0,0,0-16.8,2,29,29,0,0,0-11.21,5.82c-5.41,4.42-9.75,9.86-14.51,14.9S689.76,106.86,685,112c-2.65,1.7-5,3.66-6.22,6.72h0a4,4,0,0,0-.93,1h0a10.41,10.41,0,0,0-1.86,2h0a25,25,0,0,0-2,2.31c-5.21,5.69-10.53,11.27-15.59,17.09a49.62,49.62,0,0,0-9.45,16,73.2,73.2,0,0,0-3.22,11.11,47.26,47.26,0,0,0-.2,14.29,16.34,16.34,0,0,0,.86,4.19A85.94,85.94,0,0,0,650,195a32.61,32.61,0,0,0,12.23,13.09,73,73,0,0,0,10.94,5A44.15,44.15,0,0,0,685,215.79c6,.91,11.91,1.43,17.86,0l1.37-.09c.86-.72,2-.43,3-.84a18,18,0,0,0,5.29-1.38,38.86,38.86,0,0,1,8.7-2.29c3.7-.44,7.37-1.34,11.16-1.19,3.11.12,6.24,0,9.36.08a37.82,37.82,0,0,1,5.75.18c4.54.76,9.16,1,13.59,2.45a33.34,33.34,0,0,0,4.31,1.29c2,.37,3.91.69,5.86,1.07a87,87,0,0,0,14,1.78c5.47.16,10.83-.85,16.24-1.27a26.35,26.35,0,0,0,7.78-2.12,47.56,47.56,0,0,0,8.48-4.59,37.09,37.09,0,0,0,10.13-9.54c3.34-4.87,4.75-10.53,5.16-16.31C833.31,177.45,833.59,171.86,832.15,166.32Zm-12.33,22c-1.12,4.07-4,7-7.22,9.39a35.19,35.19,0,0,1-11.59,5.8,3.47,3.47,0,0,1-.71.13c-5.5.35-10.93,1.44-16.49,1.17a87.51,87.51,0,0,1-11.55-1.77,41.58,41.58,0,0,1-5.6-1.14,28.18,28.18,0,0,0-2.68-.88,91.47,91.47,0,0,0-11.21-2.21,149.8,149.8,0,0,0-22.5-.7,98.75,98.75,0,0,0-12.08,1.45c-4.93.92-9.55,2.87-14.4,3.9-5.12,1.08-10.33,2.23-15.6.55a4.92,4.92,0,0,0-1.42-.19c-4.7-.05-9-1.62-13.22-3.48a30.11,30.11,0,0,1-8.63-5.21c-2.71-2.49-4.21-5.66-5.81-8.82-2.48-4.91-2.33-10.18-1.82-15.4.34-3.53,1.69-6.9,3-10.21A36.76,36.76,0,0,1,666.54,150c3.17-3.73,6.5-7.33,9.81-10.94q8.49-9.28,17-18.5c4.08-4.41,8.21-8.77,12.29-13.17,3.49-3.77,6.93-7.59,10.42-11.35,1.45-1.57,3-3,4.59-4.46a18.94,18.94,0,0,1,11-4.91,69.73,69.73,0,0,1,8.58-.82,38.25,38.25,0,0,1,10.28,1.85c7.32,2.21,12.79,6.92,17.93,12.17,5.28,5.41,9.79,11.5,14.55,17.36s9.43,11.41,13.95,17.27c4.73,6.12,10.09,11.71,14.84,17.8A47.66,47.66,0,0,1,819.49,165a20.69,20.69,0,0,1,1.52,6.48c0,1.84,0,3.68,0,4.81A31.56,31.56,0,0,1,819.82,188.36Z" style="fill: #fff"/>
    <path d="M532.15,111.35A60.86,60.86,0,0,0,527.46,99a60.46,60.46,0,0,0-29.69-27.44,49.11,49.11,0,0,0-8.95-3c-3.34-.7-6.65-1.61-10.08-1.62-4.62,0-9.21-.13-13.83.71A61.65,61.65,0,0,0,452,71.39a60.11,60.11,0,0,0-31,29.81,48.85,48.85,0,0,0-3.24,9.1,44.22,44.22,0,0,0-1.63,8.65c-.08,2.08,0,4.16,0,6.24A48.06,48.06,0,0,0,419,144.36a62.72,62.72,0,0,0,4.73,10.28,60.63,60.63,0,0,0,11,13.53,57.36,57.36,0,0,0,14.13,9.7,47.83,47.83,0,0,0,12.07,4.3c3.83.72,7.59,1.81,11.53,1.77a63.87,63.87,0,0,0,24.94-4.49,58.74,58.74,0,0,0,18.17-11.74,57.49,57.49,0,0,0,11.75-15.53,58.73,58.73,0,0,0,4.86-12.75A55.7,55.7,0,0,0,534,128.14,54.28,54.28,0,0,0,532.15,111.35Zm-16.2,24.12a41.84,41.84,0,0,1-3.92,9.59,39,39,0,0,1-9.11,11.4,48,48,0,0,1-15.56,8.65c-6.45,2.2-12.87,1.89-19.37,1.56-2.83-.15-5.46-1.56-8.2-2.32a30.13,30.13,0,0,1-8.6-4.4,40.79,40.79,0,0,1-8-7,53.05,53.05,0,0,1-6.87-10.43c-1.05-2-1.43-4.35-2.23-6.5-1.3-3.52-1.17-7.19-1.31-11,.09-1.93.27-4,.24-6.08,0-1.66.81-3.06,1.21-4.57a40,40,0,0,1,8.41-15.94A44.91,44.91,0,0,1,455.89,88c2.63-1.42,5.48-2,8.24-3,5.59-2,11.36-1.23,17.09-1.12,1.62,0,3,.88,4.6,1.26a41,41,0,0,1,18,9.93,38.83,38.83,0,0,1,8.29,10.86,34.54,34.54,0,0,1,3.36,8,48.25,48.25,0,0,1,1.4,7A44.56,44.56,0,0,1,515.95,135.47Z" style="fill: #fff"/>
    <path d="M686.28,85.76a35.24,35.24,0,0,0-3.59-8.68,51.12,51.12,0,0,0-11.38-13.52c-6.35-5.38-13.52-9.14-21.64-10.41-6.51-1-13.18-1-19.48,1.87a28.45,28.45,0,0,0-8.47,5.85c-4.58,4.66-6.8,10.44-7.56,16.8a32.5,32.5,0,0,0,2.11,14.8,48.15,48.15,0,0,0,4.56,9.09,50.32,50.32,0,0,0,13.48,14.05,47.38,47.38,0,0,0,20.58,8.15c4.85.79,9.67-.13,14.37-1.56a43.72,43.72,0,0,0,7.48-3.53c.39-.25.66-.66,1.08-.86h0a11.72,11.72,0,0,0,6.24-7.19,31.52,31.52,0,0,0,3.83-14A37.83,37.83,0,0,0,686.28,85.76Zm-10.4,10.89c-.22,5.28-2.35,9.64-6.87,12.53a17.37,17.37,0,0,1-8.55,2.71c-5.7.27-10.94-1.44-15.92-4.11a38.09,38.09,0,0,1-11-9.06,31.29,31.29,0,0,1-6.25-11.09,20.32,20.32,0,0,1-1.17-8.46c.77-6.1,3.19-10.91,9.68-13.36.66-.25,1.2-.77,2-.81,1.75-.1,3.5-.25,5.25-.38,7.89,0,14.5,3.1,20.47,8.05a37,37,0,0,1,9,10.86A25,25,0,0,1,675.89,96.65Z" style="fill: #fff"/>
    <path d="M737.85,37.31A35.72,35.72,0,0,0,736.75,30a64.39,64.39,0,0,0-4.47-11.64A38.42,38.42,0,0,0,720.83,5.29,19.17,19.17,0,0,0,715,2.12C709.92.68,704.9-.87,699.35.71a35.86,35.86,0,0,0-10.55,4.67A32.66,32.66,0,0,0,679,16.48a37.59,37.59,0,0,0-3.93,9.67A33.06,33.06,0,0,0,674,37.66,41.24,41.24,0,0,0,677,55.48c3.26,8,8.12,14.69,15.75,19.12A24.56,24.56,0,0,0,699,77.29a51.17,51.17,0,0,0,9.14,1.49c1.27.09,2.23-.78,3.45-.86,4.26-.28,7.9-2.25,11.24-4.67a34.51,34.51,0,0,0,9.8-11.32,41.77,41.77,0,0,0,4.17-11.06A42.33,42.33,0,0,0,737.85,37.31Zm-18.62,23A17.64,17.64,0,0,1,710,66.1c-5.65,1.48-9.94-.72-14.14-3.93a25.72,25.72,0,0,1-7.6-10.43A24.68,24.68,0,0,1,686,43c-.14-2.88-.22-5.75-.07-8.62A26.73,26.73,0,0,1,692.59,18a16.61,16.61,0,0,1,8.51-5.29c7.14-1.92,12.34,1.27,16.89,6.07A27.56,27.56,0,0,1,724.19,30,43.24,43.24,0,0,1,726,41.18C725.65,48,724.06,54.7,719.22,60.31Z" style="fill: #fff"/>
    <path d="M802,22.89a39.15,39.15,0,0,0-4.55-9.1A31,31,0,0,0,786.08,3.37a26.32,26.32,0,0,0-13-3.36,29.22,29.22,0,0,0-16,5.41,35.18,35.18,0,0,0-9.94,10.73,59.71,59.71,0,0,0-4.31,9.38c-1.45,3.81-1.73,7.73-2.39,11.61-.78,4.6.39,9.2.94,13.79a2.28,2.28,0,0,0,.11.47c1.33,3.86,2.51,7.76,4.64,11.32,4.07,6.8,9.5,11.89,17.11,14.53,1.63.56,3.36.34,4.88,1a7.7,7.7,0,0,0,4.93.29,27.48,27.48,0,0,1,3.53-.58,18.08,18.08,0,0,0,5.68-1.65,30.55,30.55,0,0,0,8.72-5.58C797,65.21,800.76,58.27,803,50.47a41.36,41.36,0,0,0,1.23-12.74A38.26,38.26,0,0,0,802,22.89Zm-17.8,37.66a20.16,20.16,0,0,1-11.52,6.13,4.63,4.63,0,0,1-3.28-.3c-1.25-.72-2.71-.56-4.07-1.18-5-2.29-8-6.24-10.18-11a31.65,31.65,0,0,1-2.87-15.27c.47-7.67,2.83-14.76,8-20.57a18.77,18.77,0,0,1,12-6.33,14.47,14.47,0,0,1,10.27,3.19c4.44,3.3,7,8,8.67,13.2,1.06,3.28.82,6.63,1.18,9.25C792.44,46.77,790,54.26,784.21,60.54Z" style="fill: #fff"/>
    <path d="M860.62,71.36a21,21,0,0,0-4.35-7.51,22.22,22.22,0,0,0-7-5.52,27,27,0,0,0-13.81-2.8c-2,0-3.75.71-5.61,1A29.58,29.58,0,0,0,821,59.89a42,42,0,0,0-10.62,7.84,47.91,47.91,0,0,0-10.9,16.56c-1.93,5-2.38,10-2.71,15.19a6.28,6.28,0,0,0,.58,3.26A9.25,9.25,0,0,1,798,105a21.5,21.5,0,0,0,6.93,11.87,24,24,0,0,0,16.53,6.19,35.89,35.89,0,0,0,18.77-5.46,46.69,46.69,0,0,0,13.2-12,45.59,45.59,0,0,0,7.07-13.51c.92-2.74,1-5.63,1.63-8.39C863.14,79.37,861.74,75.36,860.62,71.36ZM850.05,84a36.23,36.23,0,0,1-3.53,10.48,37.46,37.46,0,0,1-6.86,8.71,29.34,29.34,0,0,1-9.9,6.31,23.47,23.47,0,0,1-7.27,1.61c-3.11,0-6.58-.44-9.47-3a8.17,8.17,0,0,1-1.8-2.17c-1.78-3.35-2.93-6.72-2.19-10.74a33,33,0,0,1,3.64-11c3.71-6.35,8.62-11.38,15.48-14.38a22.5,22.5,0,0,1,8.16-2.28,13.76,13.76,0,0,1,9.73,3,4.63,4.63,0,0,1,1,1C849.61,75.27,851,79.19,850.05,84Z" style="fill: #fff"/>
  </g>
</svg>
