<svg xmlns="http://www.w3.org/2000/svg" viewBox="0 0 300 300">
  <title>pinterest</title>
  <circle cx="150" cy="150" r="150" class="accent-fill"/>
  <path class="white-fill" d="M171.41,204.74a56.52,56.52,0,0,0,33.9-14.66,71.25,71.25,0,0,0,19-27.92c6.47-16.78,9.48-34.18,6.15-52C226,86.56,211.82,70,190.26,59.94c-19.38-9.07-39.69-9.48-60.17-4.68-38.61,9.06-59.17,39.3-61.58,67-1.1,12.73.58,25,6.93,36.39a34.86,34.86,0,0,0,17.18,15.62c3.47,1.46,5.63.41,6.64-3.2.79-2.81,1.33-5.68,2.22-8.46a7.61,7.61,0,0,0-1.74-8A27.32,27.32,0,0,1,93,140.48c-3.44-22.78,3.54-41.89,22-55.65,17.75-13.22,37.9-14.93,58.5-7.79,16.38,5.68,25.59,18,27.79,35.1,1.77,13.81-.23,27.37-4.59,40.56A58.92,58.92,0,0,1,186.37,172c-4,4.9-8.83,8.81-15,10.69-7.91,2.4-15.39,1.73-21.7-4s-6.8-12.83-4.57-20.48c2.4-8.24,4.92-16.46,7.27-24.71,1.75-6.15,3.26-12.36,2.62-18.86-.87-8.86-6.57-14.61-15.28-15.14a18.74,18.74,0,0,0-13.15,4.41A27.46,27.46,0,0,0,118,116.08c-3.93,10.69-3.29,21.34.38,32a7.39,7.39,0,0,1,.36,3.85c-3.75,16.2-7.67,32.35-11.41,48.55-2.25,9.74-5.25,19.35-5.63,29.44-.15,4.09-.05,8.2,0,12.53a113.8,113.8,0,0,0,15,5.36c12.07-17.64,14.37-38,20-57.31C145.54,202.06,157.53,205.86,171.41,204.74Z"/>
</svg>
