<svg id="Layer_1" data-name="Layer 1" xmlns="http://www.w3.org/2000/svg" viewBox="0 0 97.65 99.8">
  <title>question</title>
  <path d="M44.29,99.78a37,37,0,0,1-14.2-2.63C17.81,92.07,7.2,81.71,2.38,70.1c-5.18-12.49-1-25.9,3.71-37.36C12.1,18.22,20,9.09,30.33,4.81,40.86.44,56.58-2.38,69.11,2.8,79.14,7,88.31,17.59,94.28,32c4.72,11.38,4.48,24.5-.67,37a47.5,47.5,0,0,1-26,25.74A61.55,61.55,0,0,1,44.29,99.78ZM53.61,8A53.67,53.67,0,0,0,33.39,12.2c-8.24,3.42-14.75,11.14-19.91,23.6C9.37,45.75,5.71,57.24,9.77,67c4,9.57,13.15,18.49,23.37,22.72,8.22,3.4,19.37,2.52,31.4-2.46A39.56,39.56,0,0,0,86.22,65.88c4.34-10.48,4.58-21.43.67-30.84C81.73,22.6,74.13,13.54,66.05,10.2A32.8,32.8,0,0,0,53.61,8Z"/>
  <path d="M44.89,69.75A4,4,0,0,1,41,66.55c-.1-.51-2.46-12.62,6.66-19,9.91-6.89,11.49-11.12,11.55-13,0-.58.07-2.34-3-4.75-2.59-2.05-3.94-1.6-4.39-1.46-3.49,1.15-6.54,8.42-7.39,11.56a4,4,0,1,1-7.72-2.1c.39-1.45,4.1-14.27,12.61-17.06,2.69-.88,6.93-1.12,11.86,2.79,4.11,3.26,6.13,7.05,6,11.27C67,41,62.09,47.28,52.2,54.15c-4.77,3.31-3.41,10.72-3.39,10.79a4,4,0,0,1-3.92,4.8Z"/>
  <circle cx="46.53" cy="78.65" r="5.28" transform="translate(-38.98 110.87) rotate(-80.04)"/>
</svg>
