<svg id="Layer_1" data-name="Layer 1" xmlns="http://www.w3.org/2000/svg" viewBox="0 0 536.66 573">
  <defs>
    <style>
      .cls-1, .cls-3 {
        fill: none;
      }

      .cls-1 {
        stroke: #f8f16a;
        stroke-linecap: round;
        stroke-width: 50px;
      }

      .cls-1, .cls-2, .cls-3 {
        stroke-miterlimit: 10;
      }

      .cls-2 {
        fill: #4a5daa;
      }

      .cls-2, .cls-3 {
        stroke: #4a5daa;
      }

      .cls-3 {
        stroke-width: 5px;
      }
    </style>
  </defs>
  <title>caricatures</title>
  <g>
    <path class="cls-1" d="M174.31,323s17.1,80.86,86.11,104.71"/>
    <path class="cls-1" d="M198.18,121.07S103.35,133,97.35,165s53.9,36,46.2,68-89.12,2.88-89.2,53.5,74,11,66,71-77,8.82-77,67.15"/>
    <circle class="cls-2" cx="208.6" cy="273.06" r="7.5"/>
    <circle class="cls-2" cx="322.6" cy="271.06" r="7.5"/>
    <path class="cls-3" d="M30.34,515s-18-9-4-21,22-35,2-44-26-43,9-49,51-38,29-53-20-28,1-39.13,8-28.87-12-43.67,5-32.2,40-43.2,25-46,46-84,86-49,140-52.27,46,30.27,46,30.27,46-17,62,11,34,81,57,91,38,46,21,67,17,36.42,16,47.71-13,26.29,8,36.29-13,29-13,37,40,16,40,25-27,38-15,48"/>
    <path class="cls-3" d="M236.34,276s1.5-12-23-18-32,9-32,9-15.5-5-15.5-13"/>
    <path class="cls-3" d="M173.84,249.5s4.45,10.93,14,11"/>
    <path class="cls-3" d="M296.34,276s-.5-13.5,21.5-18.5,35.5,2.5,38,7.5c0,0,13-1.3,13.5-9.15"/>
    <path class="cls-3" d="M359.34,249.5s-1.47,13.89-8.26,11"/>
    <path class="cls-3" d="M254.68,333s-17.33-6-14.67-22.67,20.67-10.08,20.67-10.08"/>
    <path class="cls-3" d="M196,365.67s27.05,16,54.19,17.33,64.66-6,79.9-17.33"/>
    <path class="cls-3" d="M211,373s30-5.36,37.34-5.36,8.4,6.71,14.71,6.74c5.62,0,6-6.41,11.62-6.74s31.84,4.11,45.92,3.39"/>
    <path class="cls-3" d="M278.34,402s-8.67,2.33-23.67,0"/>
    <path class="cls-3" d="M191.68,372.65a97.43,97.43,0,0,1,13-12"/>
    <path class="cls-3" d="M320.59,354s6.08,13.39,16.75,17"/>
    <path class="cls-2" d="M173.87,231.83s-4.09-6.64,20.34-11.34,54.14-5.86,54.14,5.67-34.18,3.32-41.91,5.67S180.7,238.87,173.87,231.83Z"/>
    <path class="cls-2" d="M332.84,220s-23.83-6.75-30.5-2.87S294,231.67,309,232.84s28.67,1.83,40,4.16,20.67-2.67,16-8S332.84,220,332.84,220Z"/>
    <path class="cls-3" d="M120.34,226.76s14.5-14.26,26.5-19.26,61-4,103.36-15,68.14-49,68.14-49,14.74,52,36.87,58.5,22.13,21,22.13,21c-3,33,20,82,23,113.82s-39,63.18-60,83.18-54,45-79,40-67-47-97-65.66-32-66.34-22-95.34,17-86,17-86"/>
    <path class="cls-3" d="M381.84,254s47.92-6.08,13.21,56.21"/>
    <path class="cls-3" d="M396.53,267.5s-8.68-5.89-11.68,3.56"/>
    <path class="cls-3" d="M151.84,249.5s-42.5-18-13.5,66.48"/>
    <path class="cls-3" d="M135.84,265s2.8-10.89,15.4-1.44"/>
    <path class="cls-3" d="M101.34,338.5a18.9,18.9,0,0,0-11,15.5c-1,11.5,17,21.5,16,35s-36.5,14.5-41,36.5,23.54,19,20.52,38-23.5,17-21,33.5,30.49,17,31.49,8-20.5-16-2-20,14-27,6-37-11-28,12-30.5,17-37,17-37"/>
    <path class="cls-3" d="M144.34,416s7,21,0,32.5-24,5.5-24,21c0,9,16.25,20.93,9.71,34-3.67,7.33-15.71,4-14.21,19s35,8.5,35-9.5c0-9-13-28.24-4-40.62s18.76-14.9,25-26.88c5-9.6,2.5-21.77-8.5-38.14s-5.53-17.91-5.53-17.91"/>
    <path class="cls-3" d="M310,129.67s-26.56-19.33-70.28,0"/>
    <path class="cls-3" d="M219.42,435.9s-39.08,7.35-75.33,51.23"/>
    <path class="cls-3" d="M331.84,427.76s55.5,7.74,82,36.74"/>
    <path class="cls-3" d="M240.73,452s-5.89,43,31.11,43.5,44.32-30.21,50.16-59.6"/>
    <path class="cls-3" d="M400.5,349.5s10.58,5.3,7.72,23.15S404.84,402,420.34,413s18,17.26,11,33.13-1,27.89,11,15.38,21.5-35,6-48.51-26-23.44-23.5-42-3-41-3-41"/>
  </g>
</svg>
