<svg id="Layer_1" data-name="Layer 1" xmlns="http://www.w3.org/2000/svg" viewBox="0 0 536.66 573">
  <defs>
    <style>
      .misko-cls-1, .misko-cls-2 {
        fill: none;
        stroke-miterlimit: 10;
      }

      .misko-cls-1 {
        stroke: #f8f16a;
        stroke-linecap: round;
        stroke-width: 50px;
      }

      .misko-cls-2 {
        stroke: #4a5daa;
        stroke-width: 5px;
      }

      .misko-cls-3 {
        fill: #4a5daa;
      }
    </style>
  </defs>
  <title>caricatures</title>
  <g>
    <path class="misko-cls-1" d="M327,198.12s-42.86-37.5-66.2-13.5-21.57,39-60,40.5-62.68-.23-67,35.88,28.65,29.82,15.15,67.47"/>
    <path class="misko-cls-1" d="M202.7,348.5s-14.51,62.56,38.64,87.33,46.84,41.56,69.5,42.17"/>
    <path class="misko-cls-1" d="M221.75,126.12s-29.07-33-51.41-10.5-20,31.5-49.65,33-55.18,22.5-46.18,46.5,4.5,49.9-12,58.7-27,54,0,68.14,33.17,44.71,18,49.88"/>
    <path class="misko-cls-2" d="M202.34,460s-5-6-26-8-2-25-16-32-8-37-8-37c0,9-21,10-21,22s15,10,14,28-29,36-29,22,11-12,11-24-12-12-12-22,14-26,5-32-8-27-8-27c2.33,18.58-23,12-23,22s17,17,17,27-32,4-32-20,24-28,24-40-14-7-15-15a94.89,94.89,0,0,1-.43-11.93A5.66,5.66,0,0,0,76,306.51c-5.57,1.2-12,.42-12.64,7.49-1,11,10,14,10,22s-7,18-7,18c-7,11-23,11-24.18,0s13.18-11,13.18-21-15-12-13-27,26-16,28-27-14-24-13-33,14-7,19-17-10-13-5-25,8-6,17-14-2-12,0-17,18-14,21-21-4-11,6-19,16,2,28-8-1-20,16-26,23,2,44-5,18-26,36-30.17,18,16.17,35,15.17,16-17,34-15,23,21,23,21S338,48.32,345.68,47.67c5.63-.48,16.33,5.67,10.33,13.67C349.39,70.16,347.34,88,347.34,88s22-20,29-11-19,13-19,21,31-5,41,7-6,28,7,37,25,3,37,15-17,26,0,39,37,6,43,21-9,28.26-2,39.63,20-.63,25,11.37-13,17-10,31,18.77,13,10.88,26-19.88,15-16.88,0-5-12-11-27,5-15-8-25c0,0-10,22-3,32s10,19,7,35.51,22,24.49,9,28.49-29-19-25-29a19.47,19.47,0,0,0-2-18s-15,17-16,28,6,31,1,41-24,13-24,13"/>
    <path class="misko-cls-2" d="M347.34,239.34s1,23.93-20,22.3-34-17.21-37,.08-6,42.29-29,40.29-14-14-8-15.5,19,1.95,19-15.78,10-22.72,10-22.72-33.76-2.74-35.88,13.63S235.34,288,208.34,286.5,186.09,294,186.72,308s1.37,42,0,62-4,47-.71,62,17.34,37,44.34,47,49,15,58,23,51,10,59,0,41-20,50-36,29-42,21-77-8-81-8-81-18-8-17-21.5-4-18.5-19-19.5S345.34,252.67,347.34,239.34Z"/>
    <path class="misko-cls-3" d="M272.27,309.92a150.79,150.79,0,0,0-43.54,2.32c-22.58,4.79-26.91,27-12.95,21.74s43.51-13.4,54.07-10.16S285.23,310.55,272.27,309.92Z"/>
    <path class="misko-cls-3" d="M405.76,315.69s-17.54-8.43-35.58-9.33-24.09,2.83-24.75,7.79,8,11.67,20.88,9.86,30,5.74,35.54,5.87S415.89,319.71,405.76,315.69Z"/>
    <path class="misko-cls-2" d="M274.25,357s-6.41,6.5-13.41,9"/>
    <path class="misko-cls-2" d="M348.84,352.5s5,8.5,10,9"/>
    <circle class="misko-cls-3" cx="245.84" cy="348.5" r="7.5"/>
    <circle class="misko-cls-3" cx="310.84" cy="399.01" r="3.75"/>
    <circle class="misko-cls-3" cx="369.84" cy="344.88" r="7.5"/>
    <path class="misko-cls-2" d="M310.84,376.5s20.5-10.5,29,0-1,20.5-6.5,25"/>
    <path class="misko-cls-2" d="M260.84,432s30,6,55.5,3.5a179.48,179.48,0,0,0,46-11"/>
    <path class="misko-cls-2" d="M311.59,453.33s13.42,0,21.75-2.67"/>
    <line class="misko-cls-2" x1="217.84" y1="424" x2="206.84" y2="431"/>
    <line class="misko-cls-2" x1="225.34" y1="431" x2="220.34" y2="440.67"/>
    <line class="misko-cls-2" x1="248.56" y1="463" x2="241.34" y2="471.5"/>
    <line class="misko-cls-2" x1="257.34" y1="467.25" x2="253.34" y2="475.5"/>
    <line class="misko-cls-2" x1="267.55" y1="471.38" x2="264.84" y2="478"/>
    <path class="misko-cls-2" d="M187.33,327.46s-21-13.19-23,9.93S171,392,184.4,391.5"/>
    <path class="misko-cls-2" d="M173.34,341s.48-15.23,14-3.12"/>
    <path class="misko-cls-2" d="M410.5,317s7.34-18,17.34-4.77,3.06,55.41-12.72,59.57"/>
    <path class="misko-cls-2" d="M423.5,328s-3.37-11.08-11.77,4.71"/>
    <line class="misko-cls-2" x1="386.84" y1="414.5" x2="393.34" y2="420.3"/>
    <line class="misko-cls-2" x1="393.34" y1="407.5" x2="398.81" y2="410"/>
    <line class="misko-cls-2" x1="410.5" y1="443.33" x2="416.62" y2="448"/>
    <line class="misko-cls-2" x1="406.02" y1="451.31" x2="411.74" y2="454"/>
    <path class="misko-cls-2" d="M241.34,482.92S177.27,500,164.06,531.5"/>
    <path class="misko-cls-2" d="M390.09,474.39S430.34,491,449.84,516.5"/>
    <path class="misko-cls-2" d="M274.25,494.28s-9.91,24.22,3.59,34.22,37,20.5,73,3c15.06-7.32,15-23.13,9.8-39"/>
  </g>
</svg>
