<svg id="Layer_1" data-name="Layer 1" xmlns="http://www.w3.org/2000/svg" viewBox="0 0 536.66 573">
  <defs>
    <style>
      .cls-1, .cls-3 {
        fill: none;
      }

      .cls-1 {
        stroke: #f8f16a;
        stroke-linecap: round;
        stroke-width: 50px;
      }

      .cls-1, .cls-2, .cls-3, .cls-4 {
        stroke-miterlimit: 10;
      }

      .cls-2 {
        fill: #4a5daa;
      }

      .cls-2, .cls-3, .cls-4 {
        stroke: #4a5daa;
      }

      .cls-3, .cls-4 {
        stroke-width: 5px;
      }

      .cls-4 {
        fill: #fff;
      }
    </style>
  </defs>
  <title>caricatures</title>
  <g>
    <path class="cls-1" d="M341.31,158.12s46.27,93,44.23,170.81S306.63,450,306.63,450"/>
    <path class="cls-1" d="M288.58,107.77s-63-20-120.76,36.35-23.88,154.94-74.13,205.7S76.45,471.5,76.45,471.5"/>
    <circle class="cls-2" cx="184.31" cy="280.56" r="7.5"/>
    <circle class="cls-2" cx="151.3" cy="357.51" r="2.49"/>
    <circle class="cls-2" cx="185.31" cy="347.33" r="2.49"/>
    <circle class="cls-2" cx="167.82" cy="369.33" r="2.49"/>
    <circle class="cls-2" cx="318.31" cy="336.44" r="2.49"/>
    <circle class="cls-2" cx="348.06" cy="338.93" r="2.49"/>
    <circle class="cls-2" cx="328.49" cy="360" r="2.49"/>
    <circle class="cls-2" cx="318.06" cy="270.02" r="7.5"/>
    <path class="cls-3" d="M126.31,211s35,3,71-14c19.49-9.21,32.83-19.58,41-27.17a2.8,2.8,0,0,1,4.16,3.72c-3.68,5-9.6,11.18-19.12,18.44-13.67,10.44-37,19-31,28s16,3,51-19,38-63,38-63,48,2,71,34,23,61,23,61"/>
    <path class="cls-3" d="M495.31,492.46c6-11.54-1-36.46-19.32-49.13s-8.68-32.33-1.68-56.67-9-44.67-28-58.2-26-44.47-26-89.13-24-97.34-45-120.34-65-13-65-13-8-23-50-20S170.69,95,130,154s-9.69,115.91-49.69,168-43,78.26-30,104.15S51.53,469,43.42,487s11.89,45,11.89,45"/>
    <path class="cls-3" d="M375.31,332.71s2,13.29,11,28.79,40,22.3,40,55.9-8,42.6-8,42.6"/>
    <path class="cls-3" d="M125.31,343.5s12,37.51-4,55.51-33,30-26,61"/>
    <path class="cls-3" d="M226.31,252s1,24.54,0,45-19,25-44,28c-.52.06-7,.12-7.54.16-17.61,1.64-26.24-5.29-28.49-22.83-.39-3-1.73-12.33-2-15.83a198.55,198.55,0,0,1,0-26.86"/>
    <path class="cls-3" d="M280.41,248s2.12,24.47,5.71,44.68,22,22.39,47.2,22.19c.52,0,7-.78,7.5-.79,17.68-.61,25.36-8.58,25.37-26.26,0-3,.15-12.45-.06-16a198.55,198.55,0,0,0-3.41-26.64"/>
    <path class="cls-3" d="M268.75,247.52l4.91,38.36c2.31,18,9.49,30.84,15.62,35s50.45,4.71,64.34,2.93a22.57,22.57,0,0,0,10.44-4.46,31.31,31.31,0,0,0,12.48-25c.07-8,0-19-.44-27.27-.85-14.51-2.79-21.82-2.79-21.82"/>
    <line class="cls-3" x1="237.81" y1="261" x2="269.45" y2="258.5"/>
    <path class="cls-3" d="M271.63,270l-33.82,2s-13,73-7,90.49,29,14,34.5,11.51"/>
    <path class="cls-3" d="M132.81,270s-25.5-9-25.5,30,17,44.62,31,49.82"/>
    <path class="cls-3" d="M137.81,315.5s-.31,47.41,11,71c21.5,44.83,59.77,57.24,71,69,14.57,15.26,25.38,19.5,48.94,18s27.65-15.8,47.07-27.79c10.65-6.58,22.88-16.1,32.68-29a73.69,73.69,0,0,0,14-33.28c2.55-16.21,6.43-44.8,6.39-68.57"/>
    <path class="cls-3" d="M374.92,255s10.89-12.09,19.39-3,13.5,43.54,0,59.54-17.37,20.42-25.44,21.21"/>
    <path class="cls-3" d="M231.18,319.06a19.71,19.71,0,0,1-4.42,6.31c-5.56,4.9-49.44,11.07-63.44,11.07a22.57,22.57,0,0,1-10.92-3.1,31.31,31.31,0,0,1-15.55-23.23c-1.08-7.92-2.46-18.87-3-27.11-1-14.5,0-22,0-22"/>
    <path class="cls-3" d="M237.81,250v24"/>
    <path class="cls-3" d="M210.65,410.67s20.05,7.67,36.53,7.67,27.14-1.33,40.47-7.67S306.31,398,306.31,398"/>
    <path class="cls-3" d="M291.65,406.25s-7.33-8.92-18.33-8.25-12.33,8.67-18,10.17-5-6-12.67-5.1-15.89,10.6-15.89,10.6"/>
    <path class="cls-3" d="M247.17,431.33s11.69,5,21.58,0"/>
    <path class="cls-3" d="M118.65,300.33s1-21.33,15.17-17.33"/>
    <path class="cls-3" d="M393.31,277.52s1.57-18.06-17.21-10.46"/>
    <path class="cls-2" d="M153.79,262s2.88,11.91,14,7.12S230.31,236,215,230,163.26,237.5,153.79,262Z"/>
    <path class="cls-2" d="M315.82,230s-12.85-11-24.18-6.33S303,242.19,318.31,248.6s31.59,23.18,38,9.9S315.82,230,315.82,230Z"/>
    <line class="cls-3" x1="143.87" y1="210.77" x2="136.75" y2="248.6"/>
    <path class="cls-3" d="M234.95,469.25s1.7,20.75,23.53,36.25c0,0,23-6,32.17-39"/>
    <path class="cls-3" d="M219.81,455.5s-57.5,13.5-73,50"/>
    <path class="cls-3" d="M322.66,441s57.15-4,92.65,48.5"/>
    <path class="cls-4" d="M130.5,250s103.56-11,109.06-10.5,8.13,10.5,8.13,10.5L130.5,261Z"/>
    <path class="cls-4" d="M375.52,233.87s-104.28,2.25-109.68,3.44-6.65,11.44-6.65,11.44l117.72-4Z"/>
  </g>
</svg>
