<svg id="Layer_1" data-name="Layer 1" xmlns="http://www.w3.org/2000/svg" viewBox="0 0 536.66 573">
  <defs>
    <style>
      .cls-1, .cls-3 {
        fill: none;
      }

      .cls-1 {
        stroke: #f8f16a;
        stroke-linecap: round;
        stroke-width: 50px;
      }

      .cls-1, .cls-2, .cls-3 {
        stroke-miterlimit: 10;
      }

      .cls-2 {
        fill: #4a5daa;
      }

      .cls-2, .cls-3 {
        stroke: #4a5daa;
      }

      .cls-3 {
        stroke-width: 5px;
      }
    </style>
  </defs>
  <title>caricatures</title>
  <g>
    <path class="cls-1" d="M154.34,323S171.66,485,277,502"/>
    <path class="cls-1" d="M314.29,143.5s-153.63-67-180.79,83.26"/>
    <circle class="cls-2" cx="181.82" cy="296.77" r="7.5"/>
    <circle class="cls-2" cx="321.79" cy="295.35" r="7.5"/>
    <path class="cls-3" d="M121,262s-6-77,23-101,73-59,119-57,83,36,100,52,30,54,28,97-16,147-26,165-39,46-47,57-22,24-41,27-61,1-68-11-50-46-60-68-29-55-28.51-108Z"/>
    <path class="cls-3" d="M219,498.24s5.68,29.26,36.84,29.26,61.74-21.37,69-60.69"/>
    <path class="cls-3" d="M192.3,472.68S154.5,488.5,133.5,517"/>
    <path class="cls-3" d="M346.27,442.86s91.73,9.31,102.73,52"/>
    <path class="cls-3" d="M386.95,299.38S410.5,268,421,297s-22.19,72.57-46.59,86.78"/>
    <path class="cls-3" d="M120.7,293s-2.2-10.6-17.2-8.3-17.26,71.81,25.12,89.06"/>
    <path class="cls-3" d="M104,310s1.45-22.34,16.48-6.42"/>
    <path class="cls-3" d="M412,310s-1.07-31.13-27,5.93"/>
    <path class="cls-2" d="M157.5,277c-3.59.49-11.5,5.75-14.5,0-4.49-8.61,8-18.5,29-19s59,6.5,57.5,17.5-30,3-41.5,2.5S165,276,157.5,277Z"/>
    <path class="cls-2" d="M300,281.28c-4.22.6-18.5-.78-8.5-14.78s62.5-9,67.5-5.5,11,16,0,16S314.63,279.19,300,281.28Z"/>
    <path class="cls-3" d="M211.5,306.85s-3.75,5.4-13.25,10.15"/>
    <path class="cls-3" d="M290,305.25s5,8.12,14,10.68"/>
    <path class="cls-3" d="M228,327s-11.17,18.75-13.24,22.75-11.79,22.5,0,22.5,6.41,9.75,21.71,9.75,20.27-4.24,23.16-8.24,15.25-.71,18.82-2.76c3.93-2.25,6-8.25,1.24-15"/>
    <path class="cls-3" d="M216.26,411.58s14.57-4.84,29.33-4.93,36.4,3.9,36.4,3.9"/>
    <path class="cls-3" d="M184.5,418.75c42,9.53,90.84,10.65,131.75-4.15"/>
    <path class="cls-3" d="M240.75,443.86s7.5,2.89,13.75,2.89"/>
  </g>
</svg>
