<svg id="Layer_1" data-name="Layer 1" xmlns="http://www.w3.org/2000/svg" viewBox="0 0 536.66 573">
  <defs>
    <style>
      .cls-1, .cls-3 {
        fill: none;
      }

      .cls-1 {
        stroke: #f8f16a;
        stroke-linecap: round;
        stroke-width: 50px;
      }

      .cls-1, .cls-2, .cls-3 {
        stroke-miterlimit: 10;
      }

      .cls-2, .cls-4 {
        fill: #4a5daa;
      }

      .cls-2, .cls-3 {
        stroke: #4a5daa;
      }

      .cls-3 {
        stroke-width: 5px;
      }
    </style>
  </defs>
  <title>caricatures</title>
  <g>
    <path class="cls-1" d="M143.74,379.42s6.92,52,57.44,68.08,46.83,56,71.65,55.74,43.79-55.18,75.07-66.91"/>
    <path class="cls-1" d="M332.56,111.12s-39.62-38.92-72.24-19.46-37.63,42-68.88,43.46-60.58,5.76-69.16,50.88-22.45,70.88-38,78.25"/>
    <circle class="cls-2" cx="191.45" cy="311.92" r="7.5"/>
    <circle class="cls-2" cx="340.41" cy="311.92" r="7.5"/>
    <path class="cls-3" d="M345,94.33s0-10.67-10-14-20,7.33-30.67,3.33-8-25.33-56.67-20.67-42,10-35.33,20-19.33,3.33-46,11.33-33.33,21.33-32.67,40-26,26.67-40.67,58c0,0-15.33,31.33-5.33,56s14.67,38.17,14.67,38.17"/>
    <path class="cls-3" d="M332.32,151s-6.67,16.67-22,18.67S269,166.33,259,187s-20.67,40-33.33,38S225,213,229,206.33s9.33-22,3.33-22.67S219.66,203,211.66,211s-14,14.67-20,10,10.67-13.33,12.67-24-4-19.19-9.33-8.93S179.66,217,169,221s-9.33-10.67,3.33-21.33,2.67-23.33-21.33,2-23.33,50-24.67,70.67-4,56.67-4,83.33-1.33,50,12,65.33,29.33,23.33,29.33,32"/>
    <path class="cls-3" d="M169,447s6.67,6,6.67,11.33"/>
    <path class="cls-3" d="M184.32,453s17.95,12,30.31,23.33,17,18.67,17,18.67"/>
    <line class="cls-3" x1="237.66" y1="487.67" x2="241.66" y2="498.33"/>
    <polyline class="cls-3" points="249.66 493.5 294.66 493.5 297.66 503"/>
    <line class="cls-3" x1="304.16" y1="488" x2="304.16" y2="498"/>
    <path class="cls-3" d="M316.49,487.67s23.67-20.67,28.67-24V471"/>
    <line class="cls-3" x1="356.32" y1="453" x2="360.32" y2="463.67"/>
    <path class="cls-3" d="M369,447s24.67-20,27.33-32.67,4-36.67,4-69.33.67-78-4-108-18-55.16-32-62.58"/>
    <path class="cls-3" d="M345.16,153.67a24.78,24.78,0,0,1-9.5,16"/>
    <path class="cls-3" d="M356.32,159s.67,6.17-7.33,15.42"/>
    <path class="cls-3" d="M356.32,99a19.88,19.88,0,0,1,15.33-7.33c10,0,13.33,10.67,22,10.67s22.67-9.33,26.67,0S398.32,117.67,405,123s34-6,38,4.67-18,8.67-18,20,22,2.67,22,14-10.67,4.84-15.33,12.75S437,217,436.32,242.33s-13.33,38-13.33,38"/>
    <path class="cls-3" d="M401.66,275.67S415,262.33,425,290.33s-23.33,70-23.33,70"/>
    <path class="cls-3" d="M125.39,286.5S111,260.33,98.32,295s24,73.33,24,73.33"/>
    <path class="cls-3" d="M241.66,351.67s-14,23.33,0,26,48.67,2.67,56-2.67-5.33-19.33-5.33-19.33"/>
    <path class="cls-3" d="M129,392.33s16,16,33.33,16"/>
    <path class="cls-3" d="M175.66,405.67S177,416.33,169,419"/>
    <path class="cls-3" d="M189,405.67s2,8-4.67,16.67"/>
    <path class="cls-3" d="M198.32,408.33s11.33-12,33.33-16,36-2.67,36-2.67"/>
    <line class="cls-3" x1="278.66" y1="389.5" x2="284.66" y2="389.5"/>
    <path class="cls-3" d="M293.66,389.45S304,386.33,316.49,395s36.17,10.67,36.17,10.67"/>
    <path class="cls-3" d="M360.32,403.67a27.07,27.07,0,0,1-4,15.33"/>
    <path class="cls-3" d="M368.32,405.67s18-2,30.67-13.33"/>
    <path class="cls-3" d="M260.32,405.67s-30.67,2-42.67,13.33"/>
    <line class="cls-3" x1="205.66" y1="419" x2="214.63" y2="426.33"/>
    <line class="cls-3" x1="202.66" y1="431.5" x2="207.66" y2="431.5"/>
    <path class="cls-3" d="M268.33,405.67s34-4,40,0"/>
    <path class="cls-3" d="M323.16,411.33s11.16,5,9.16,15-24,16.67-24,16.67l-4.17,10"/>
    <line class="cls-3" x1="293.66" y1="453" x2="297.66" y2="441.67"/>
    <line class="cls-3" x1="249.66" y1="447.5" x2="288.66" y2="447.5"/>
    <path class="cls-3" d="M227.3,426.33s14.41,5.67,40.38,5.17,50.67-9.17,50.67-9.17"/>
    <path class="cls-3" d="M214.63,436.33S228.32,446.5,239,447"/>
    <path class="cls-3" d="M143.74,291s17-3,51-4.5,44.38,2.25,44.38,2.25V333s-26.77,4.5-49.89,4.5a207.13,207.13,0,0,1-43.61-5Z"/>
    <path class="cls-3" d="M389.16,289s-16.83-3-50.83-4.5-44.17,2.25-44.17,2.25V331s26.56,4.5,49.68,4.5a205.5,205.5,0,0,0,43.51-5Z"/>
    <path class="cls-3" d="M240.66,302s14-7,27.5-7,25.5,5.5,25.5,5.5"/>
    <line class="cls-3" x1="125.39" y1="295" x2="143.74" y2="298.5"/>
    <line class="cls-3" x1="389.16" y1="298.5" x2="400.36" y2="288.5"/>
    <line class="cls-3" x1="400.26" y1="302" x2="389.16" y2="310.71"/>
    <path class="cls-3" d="M414.26,291s-9.1-15-13.6,5.75"/>
    <path class="cls-3" d="M107.16,296.75s12.68-14.3,17.09,7.73l20.4,6.23"/>
    <path class="cls-4" d="M159.16,280.33s-9.5-5.83,0-11.83,31.47-15,51-12.5S245,270,227.3,274,192.93,265.67,159.16,280.33Z"/>
    <path class="cls-4" d="M364.32,260s-35.67-10.36-52.17-4.43-19,14.93-8,14.93,39.33-2.51,52.17,2,19.33,1.91,19.33-4.54S364.32,260,364.32,260Z"/>
    <path class="cls-3" d="M201.18,465.17s-68,20.83-99,53.83"/>
    <path class="cls-3" d="M368.32,465.17S407.66,464,435.66,506"/>
    <path class="cls-3" d="M224,485.58s-2.81,34.92,43.19,35.92S321,503.55,325.32,480"/>
  </g>
</svg>
