<svg id="Layer_1" data-name="Layer 1" xmlns="http://www.w3.org/2000/svg" viewBox="0 0 1061.79 323.48">
  <defs>
    <style>
      .cls-1 {
        fill: #f6ee6e;
      }

      .cls-2, .cls-3 {
        fill: #4b5da9;
      }

      .cls-3 {
        font-size: 33.67px;
        font-family: PTSans-Bold, PT Sans;
        font-weight: 700;
      }

      .cls-4 {
        letter-spacing: -0.08em;
      }

      .cls-5 {
        letter-spacing: -0.04em;
      }

      .cls-6 {
        letter-spacing: 0em;
      }

      .cls-7 {
        letter-spacing: -0.13em;
      }

      .cls-8 {
        fill: none;
        stroke: #4b5da9;
        stroke-miterlimit: 10;
        stroke-width: 8px;
      }

      .cls-9 {
        fill: #fff;
      }
    </style>
  </defs>
  <title>thanks</title>
  <g>
    <polyline class="cls-1" points="321.92 111.47 218.92 132.47 250.92 165.47 230.92 212.47 328.92 202.47"/>
    <polyline class="cls-1" points="740.92 109.47 843.92 130.47 811.92 163.47 831.92 210.47 733.92 200.47"/>
    <polygon class="cls-2" points="272.51 170.42 328.92 202.47 328.92 117.47 272.51 170.42"/>
    <polygon class="cls-2" points="789.34 170.42 732.92 202.47 732.92 117.47 789.34 170.42"/>
    <path class="cls-1" d="M789,170.47l-72.4-12.62a1082.68,1082.68,0,0,0-371.7,0l-72.4,12.62v-96L343,62.09a1082.68,1082.68,0,0,1,371.72-.47L789,74.47Z"/>
    <text class="cls-3" transform="translate(568.67 251.55)"><tspan class="cls-4">-</tspan><tspan class="cls-5" x="9.43" y="0"> </tspan><tspan x="16.73" y="0">The </tspan><tspan class="cls-5" x="79.82" y="0">P</tspan><tspan class="cls-6" x="97.87" y="0">etBot</tspan><tspan class="cls-5" x="176.45" y="0"> </tspan><tspan class="cls-7" x="183.75" y="0">T</tspan><tspan class="cls-6" x="198.57" y="0">eam</tspan></text>
    <g>
      <path class="cls-2" d="M351.68,108.27q-6.45.92-12.89,1.9L341,124.65l-6.81,1.06L328.7,91.14l7-1.09,2.15,14.09q6.47-1,13-1.91l-2-14.11,7-1,4.73,34.68-6.83,1Z"/>
      <path class="cls-2" d="M372.29,85q10.65-1.31,21.31-2.44l.64,6.07q-7.11.75-14.21,1.59l1,8.09q6.42-.75,12.85-1.44l.65,6.06q-6.4.68-12.79,1.44l1,8.49q7.1-.83,14.21-1.59l.64,6.07q-10.49,1.11-21,2.4Z"/>
      <path class="cls-2" d="M419.93,102.13q-6.76-10.45-13.73-20.84l8.38-.78q3.88,6.25,7.69,12.53l1,3.63.25,0L424,92.8q2.62-6.76,5.31-13.52l7.57-.57q-5.11,11.37-10,22.78l1.05,13-6.86.57Z"/>
      <path class="cls-2" d="M519.31,81.59q-5.24,0-10.48.11l.44,28.9-6.87.12-.6-28.89q-5.26.11-10.53.26L491.1,76q14.08-.41,28.17-.5Q519.29,78.54,519.31,81.59Z"/>
      <path class="cls-2" d="M553.12,96.06q-6.5-.13-13-.19-.07,7.32-.14,14.65l-6.88,0q.07-17.5.14-35l7.07,0-.14,14.25q6.53.07,13.06.19l.29-14.25,7.07.16-.9,35-6.87-.16Z"/>
      <path class="cls-2" d="M593.51,104.43q-5.42-.28-10.85-.52-1.51,3.81-3,7.63l-6.87-.27q7-17.39,14.27-34.69l5.21.25q5.61,17.93,10.85,35.91l-7.22-.42Q594.72,108.38,593.51,104.43Zm-8.83-5.94,7.6.37q-1.12-4-2.25-7.92-.4-2.77-.8-5.55H589l-1.34,5.49Q586.14,94.68,584.68,98.49Z"/>
      <path class="cls-2" d="M626.29,96.06q-1.18-2.85-2.38-5.7l-.26,0q.2,2.77.4,5.55l-1.39,18.2-6.51-.48,2.51-35.16,5.15.38q6.12,9.81,12,19.68,1.11,2.78,2.22,5.56l.25,0q-.17-2.7-.34-5.4l1.61-18.33,6.69.61L643,116.06l-5-.46Q632.25,105.8,626.29,96.06Z"/>
      <path class="cls-2" d="M669.36,103.5l-1.82-.21-1.66,14.86-6.84-.75,3.7-34.8,7,.77L668,98.78l1.7-.51q5.73-6.8,11.57-13.54l8,1q-6.16,6.62-12.21,13.3l-3,1.56,2.61,2.27q4.92,8.87,9.68,17.78-4.21-.54-8.43-1.06Q673.75,111.52,669.36,103.5Z"/>
      <path class="cls-2" d="M716.4,115.36a3.23,3.23,0,0,0-.79-2.75,13.16,13.16,0,0,0-2.69-2.25q-1.67-1.08-3.63-2.25a20.33,20.33,0,0,1-3.58-2.69,11.15,11.15,0,0,1-2.54-3.57,8.94,8.94,0,0,1-.52-5,10.34,10.34,0,0,1,1.48-4.26A8.29,8.29,0,0,1,707,89.87a10.87,10.87,0,0,1,4.08-1.28,18.64,18.64,0,0,1,5,.13,31.39,31.39,0,0,1,5.81,1.41,15.16,15.16,0,0,1,4.31,2.22l-3.08,5.34A12.55,12.55,0,0,0,720,95.91a19.37,19.37,0,0,0-4.75-1.3,6.37,6.37,0,0,0-3.88.39,3,3,0,0,0-1.67,2.33,3.12,3.12,0,0,0,.83,2.65,14.18,14.18,0,0,0,2.72,2.27q1.67,1.1,3.64,2.32a21,21,0,0,1,3.56,2.75,11.07,11.07,0,0,1,2.49,3.58,8.51,8.51,0,0,1,.45,4.8,11.45,11.45,0,0,1-1.68,4.62,9.22,9.22,0,0,1-3.12,2.93,11.14,11.14,0,0,1-4.34,1.36,20.28,20.28,0,0,1-5.3-.14,28.61,28.61,0,0,1-6.47-1.65,20.57,20.57,0,0,1-4-2l3-5.49a14.34,14.34,0,0,0,1.34.85,20.05,20.05,0,0,0,1.89.93,22.81,22.81,0,0,0,2.25.83,16,16,0,0,0,2.5.57,9,9,0,0,0,4.83-.32A3.44,3.44,0,0,0,716.4,115.36Z"/>
    </g>
    <path class="cls-8" d="M157.66,159.73s-19.11,75,10,117.93c0,0-108.67-58.72-113-139.51"/>
    <path class="cls-8" d="M236,275.42s-57.29,5.38-74.47,3.09-34.11-8.15-38.7,5.25c-6.06,17.69,38.17,18.14,47.49-10.6,6.34-19.53,20.78-37.17,3.26-39.45-23.15-3,9.8,62.52,4.28,88.68"/>
    <ellipse class="cls-1" cx="47.96" cy="76.87" rx="47.9" ry="61.21" transform="translate(-4.6 3.07) rotate(-3.5)"/>
    <ellipse class="cls-1" cx="164.12" cy="103.87" rx="56.22" ry="44" transform="translate(39.41 252.78) rotate(-82.38)"/>
    <ellipse class="cls-9" cx="23.34" cy="50.48" rx="17" ry="8.75" transform="translate(-32.27 50.98) rotate(-65.7)"/>
    <ellipse class="cls-9" cx="141.27" cy="82.47" rx="13.42" ry="6.91" transform="translate(7.97 177.29) rotate(-65.7)"/>
    <ellipse class="cls-9" cx="130.49" cy="103.87" rx="6.71" ry="3.45" transform="translate(6.03 214.9) rotate(-80.26)"/>
    <path class="cls-8" d="M916.48,158.22s31.16,70.69,8.23,117.18c0,0,97.64-72,90.91-152.62"/>
    <path class="cls-8" d="M871.92,298.47s18-25.5,56.89-22c17.27,1.53,32.68-12.72,39.06-.08,8.42,16.69-35.34,23.17-48.49-4-8.94-18.49-25.65-34-8.61-38.64,22.52-6.14-1.18,63.27,7.86,88.44"/>
    <ellipse class="cls-1" cx="1013.85" cy="61.17" rx="47.9" ry="61.21" transform="translate(-1.82 54.17) rotate(-3.06)"/>
    <ellipse class="cls-1" cx="907.46" cy="103.77" rx="44" ry="56.22" transform="matrix(0.98, -0.2, 0.2, 0.98, -2.3, 184.93)"/>
    <path class="cls-9" d="M893.53,78.23c-3.44,6.53-8.9,10.35-12.19,8.54s-3.17-8.57.28-15.09,8.9-10.35,12.19-8.54S897,71.7,893.53,78.23Z"/>
    <path class="cls-9" d="M878.85,96.37c-.86,3.6-3,6.15-4.85,5.7s-2.59-3.74-1.73-7.34,3-6.15,4.85-5.7S879.71,92.77,878.85,96.37Z"/>
    <path class="cls-1" d="M910.42,154.47S900,168,907.46,168s9-9.74,9-9.74,14.89,10.74,14.94,3S910.42,154.47,910.42,154.47Z"/>
    <path class="cls-1" d="M1011.39,117.73s-13.53,10.39-6.31,12.3,11.21-7.12,11.21-7.12,11.66,14.18,13.68,6.7S1011.39,117.73,1011.39,117.73Z"/>
    <path class="cls-1" d="M151.39,154.73s-13.53,10.39-6.31,12.3,11.21-7.12,11.21-7.12,11.66,14.18,13.68,6.7S151.39,154.73,151.39,154.73Z"/>
    <path class="cls-1" d="M49.39,133.73S35.86,144.13,43.08,146s11.21-7.12,11.21-7.12,11.66,14.18,13.68,6.7S49.39,133.73,49.39,133.73Z"/>
  </g>
</svg>
