<?xml version="1.0" encoding="utf-8"?>
<!-- Generator: Adobe Illustrator 20.0.0, SVG Export Plug-In . SVG Version: 6.00 Build 0)  -->
<svg version="1.1" id="Layer_1" xmlns="http://www.w3.org/2000/svg" xmlns:xlink="http://www.w3.org/1999/xlink" x="0px" y="0px"
	 viewBox="0 0 24.5 24" style="enable-background:new 0 0 24.5 24;" xml:space="preserve">
<style type="text/css">
	.st0{fill:none;stroke:#FFFFFF;stroke-width:1.5;stroke-miterlimit:10;}
</style>
<title>treat</title>
<g>
	<path class="st0" d="M18.5,9.2c0.5-0.7,0.6-1.6,0.3-2.4c-0.5-1.3-1.9-1.9-3.2-1.4c0,0-0.1,0-0.1,0c-1.3,0.4-2,1.7-1.6,3
		c0,0.1,0.1,0.3,0.2,0.4l-5,1.9c-0.3-1.3-1.7-2.1-3-1.8C5.9,8.9,5.8,9,5.6,9.1c-1.3,0.5-2,1.9-1.6,3.2c0.3,0.8,1,1.5,1.8,1.6
		c-0.5,0.7-0.6,1.6-0.3,2.4c0.5,1.4,2,2.1,3.4,1.6c1.3-0.5,2-1.9,1.6-3.2c0,0,0,0,0,0l5-1.9c0.5,1.3,2,2,3.3,1.4c0,0,0,0,0,0
		c1.3-0.5,2-2,1.5-3.4C20,10,19.4,9.4,18.5,9.2z"/>
</g>
</svg>
