<svg xmlns="http://www.w3.org/2000/svg" viewBox="0 0 300 300">
  <title>Twitter</title>
  <circle cx="150" cy="150" r="150" class="accent-fill"/>
  <g id="KJqpY4.tif">
    <path class="white-fill" d="M193.28,73.87h5.64c1.45.2,2.91.35,4.35.61A40.73,40.73,0,0,1,225.5,86.22a1.43,1.43,0,0,0,1.47.49,82.5,82.5,0,0,0,20.78-7.36c1.45-.75,2.88-1.53,4.32-2.3a40.69,40.69,0,0,1-17.4,22.48,83.19,83.19,0,0,0,23-6.2,7.7,7.7,0,0,1-.7,1.16A83.1,83.1,0,0,1,238,114a1.55,1.55,0,0,0-.7,1.46,123.55,123.55,0,0,1-.46,15.23,117.31,117.31,0,0,1-5.28,25.2,119.73,119.73,0,0,1-33.84,52.59,108.28,108.28,0,0,1-30.23,19.32,119.6,119.6,0,0,1-51.15,9.27,116.24,116.24,0,0,1-58.45-17.82c-.23-.14-.55-.21-.62-.61a82.87,82.87,0,0,0,60.57-17.05,41.37,41.37,0,0,1-38.12-27.72c-.16-.44-.5-1,.5-.84a39.18,39.18,0,0,0,13.41.12,22,22,0,0,0,4-.88,1.45,1.45,0,0,0-.24-.15l-.6-.15q-19.25-4.86-27.93-22.72A38.53,38.53,0,0,1,65,132.1c0-.58.06-.82.71-.47a40.9,40.9,0,0,0,15.15,4.62c.76.08,1.52.09,2.29.13-8.7-6.41-14.49-14.67-16.82-25.16A40.85,40.85,0,0,1,71,81.33l.48.61A116.19,116.19,0,0,0,83.48,94.53a116.85,116.85,0,0,0,30.84,20A117.67,117.67,0,0,0,155,124.45c.89.06.79-.32.67-.9a41.23,41.23,0,0,1,31.87-48.82C189.44,74.32,191.37,74.18,193.28,73.87Z" />
  </g>
</svg>
