<svg id="Layer_1" data-name="Layer 1" xmlns="http://www.w3.org/2000/svg" viewBox="0 0 300.26 300.26">
  <title>petbot-graphics</title>
  <g>
    <circle class="accent-fill" cx="150.13" cy="150.13" r="150.13"/>
    <path class="white-fill"  d="M241,77.08a640.06,640.06,0,0,0-181.66,0C48.67,78.69,40.09,88.88,40.09,99.45q0,50.68,0,101.35c0,10.57,8.58,20.77,19.22,22.38a640.05,640.05,0,0,0,181.66,0c10.63-1.61,19.22-11.81,19.22-22.38V99.45C260.18,88.88,251.59,78.69,241,77.08Zm-45.33,76.85-65.8,45a4.6,4.6,0,0,1-7.19-3.79v-90a4.6,4.6,0,0,1,7.19-3.79l65.8,45A4.6,4.6,0,0,1,195.63,153.93Z"/>
  </g>
</svg>
